<svg width="325" height="300" viewBox="0 0 325 300" fill="none" xmlns="http://www.w3.org/2000/svg">
<path d="M0 0H325V300H0V0Z" fill="#FAFBFC"/>
<path d="M85.917 181H84.0908V165.295H92.835V166.906H85.917V172.664H92.416V174.265H85.917V181ZM96.9814 181H95.1875V164.285H96.9814V181ZM110.903 175.092C110.903 176.059 110.778 176.922 110.527 177.681C110.277 178.44 109.915 179.081 109.442 179.604C108.97 180.126 108.397 180.527 107.724 180.807C107.058 181.079 106.302 181.215 105.457 181.215C104.669 181.215 103.946 181.079 103.287 180.807C102.635 180.527 102.07 180.126 101.59 179.604C101.117 179.081 100.748 178.44 100.483 177.681C100.226 176.922 100.097 176.059 100.097 175.092C100.097 173.803 100.315 172.707 100.752 171.805C101.189 170.895 101.812 170.204 102.621 169.731C103.438 169.252 104.408 169.012 105.532 169.012C106.606 169.012 107.545 169.252 108.347 169.731C109.156 170.211 109.783 170.906 110.227 171.815C110.678 172.718 110.903 173.81 110.903 175.092ZM101.944 175.092C101.944 176.037 102.07 176.857 102.32 177.552C102.571 178.246 102.958 178.784 103.48 179.163C104.003 179.543 104.676 179.732 105.5 179.732C106.316 179.732 106.986 179.543 107.509 179.163C108.039 178.784 108.429 178.246 108.68 177.552C108.93 176.857 109.056 176.037 109.056 175.092C109.056 174.154 108.93 173.344 108.68 172.664C108.429 171.977 108.042 171.447 107.52 171.074C106.997 170.702 106.32 170.516 105.489 170.516C104.265 170.516 103.366 170.92 102.793 171.729C102.227 172.539 101.944 173.66 101.944 175.092ZM123.568 180.979L121.474 174.125C121.381 173.831 121.291 173.545 121.205 173.266C121.126 172.979 121.051 172.707 120.979 172.449C120.915 172.184 120.854 171.941 120.797 171.719C120.747 171.49 120.704 171.293 120.668 171.128H120.593C120.564 171.293 120.525 171.49 120.475 171.719C120.424 171.941 120.364 172.184 120.292 172.449C120.228 172.714 120.156 172.993 120.077 173.287C119.998 173.574 119.909 173.864 119.809 174.157L117.617 180.979H115.608L112.364 169.205H114.212L115.909 175.704C116.024 176.134 116.131 176.56 116.231 176.982C116.339 177.398 116.428 177.792 116.5 178.164C116.579 178.529 116.636 178.848 116.672 179.12H116.758C116.801 178.941 116.847 178.726 116.897 178.476C116.955 178.225 117.016 177.96 117.08 177.681C117.152 177.394 117.227 177.111 117.306 176.832C117.384 176.546 117.463 176.277 117.542 176.026L119.712 169.205H121.635L123.729 176.016C123.837 176.359 123.941 176.717 124.041 177.09C124.148 177.462 124.245 177.824 124.331 178.175C124.417 178.519 124.478 178.826 124.514 179.099H124.6C124.628 178.855 124.682 178.554 124.761 178.196C124.84 177.838 124.929 177.444 125.029 177.015C125.137 176.585 125.248 176.148 125.362 175.704L127.081 169.205H128.896L125.642 180.979H123.568ZM135.578 169.012C136.581 169.012 137.44 169.234 138.156 169.678C138.872 170.122 139.42 170.745 139.8 171.547C140.179 172.342 140.369 173.273 140.369 174.34V175.446H132.237C132.259 176.828 132.603 177.881 133.269 178.604C133.935 179.328 134.873 179.689 136.083 179.689C136.828 179.689 137.487 179.621 138.06 179.485C138.632 179.349 139.227 179.149 139.843 178.884V180.452C139.248 180.717 138.658 180.91 138.07 181.032C137.49 181.154 136.803 181.215 136.008 181.215C134.876 181.215 133.888 180.986 133.043 180.527C132.205 180.062 131.553 179.382 131.088 178.486C130.622 177.591 130.39 176.495 130.39 175.199C130.39 173.932 130.601 172.836 131.023 171.912C131.453 170.981 132.055 170.265 132.828 169.764C133.609 169.262 134.525 169.012 135.578 169.012ZM135.557 170.473C134.604 170.473 133.845 170.784 133.279 171.407C132.714 172.03 132.377 172.9 132.27 174.018H138.5C138.493 173.316 138.382 172.7 138.167 172.17C137.959 171.633 137.641 171.217 137.211 170.924C136.781 170.623 136.23 170.473 135.557 170.473ZM148.748 169.012C148.984 169.012 149.231 169.026 149.489 169.055C149.747 169.076 149.976 169.108 150.177 169.151L149.951 170.806C149.758 170.756 149.543 170.716 149.307 170.688C149.07 170.659 148.848 170.645 148.641 170.645C148.168 170.645 147.72 170.741 147.298 170.935C146.882 171.121 146.517 171.393 146.202 171.751C145.887 172.102 145.64 172.528 145.461 173.029C145.282 173.523 145.192 174.075 145.192 174.684V181H143.398V169.227H144.881L145.074 171.396H145.149C145.393 170.96 145.687 170.562 146.03 170.204C146.374 169.839 146.771 169.549 147.223 169.334C147.681 169.119 148.189 169.012 148.748 169.012ZM170.855 172.997C170.855 174.766 170.533 176.245 169.889 177.434C169.244 178.615 168.31 179.507 167.085 180.108C165.868 180.703 164.389 181 162.648 181H158.384V165.295H163.121C164.718 165.295 166.093 165.589 167.246 166.176C168.399 166.756 169.287 167.619 169.91 168.765C170.54 169.903 170.855 171.314 170.855 172.997ZM168.933 173.062C168.933 171.651 168.696 170.487 168.224 169.57C167.758 168.654 167.071 167.973 166.161 167.529C165.259 167.078 164.152 166.853 162.842 166.853H160.21V179.432H162.434C164.596 179.432 166.218 178.898 167.3 177.831C168.388 176.764 168.933 175.174 168.933 173.062ZM178.611 169.012C179.614 169.012 180.473 169.234 181.189 169.678C181.906 170.122 182.453 170.745 182.833 171.547C183.213 172.342 183.402 173.273 183.402 174.34V175.446H175.271C175.292 176.828 175.636 177.881 176.302 178.604C176.968 179.328 177.906 179.689 179.116 179.689C179.861 179.689 180.52 179.621 181.093 179.485C181.666 179.349 182.26 179.149 182.876 178.884V180.452C182.282 180.717 181.691 180.91 181.104 181.032C180.523 181.154 179.836 181.215 179.041 181.215C177.91 181.215 176.921 180.986 176.076 180.527C175.238 180.062 174.587 179.382 174.121 178.486C173.656 177.591 173.423 176.495 173.423 175.199C173.423 173.932 173.634 172.836 174.057 171.912C174.486 170.981 175.088 170.265 175.861 169.764C176.642 169.262 177.559 169.012 178.611 169.012ZM178.59 170.473C177.637 170.473 176.878 170.784 176.312 171.407C175.747 172.03 175.41 172.9 175.303 174.018H181.533C181.526 173.316 181.415 172.7 181.2 172.17C180.993 171.633 180.674 171.217 180.244 170.924C179.814 170.623 179.263 170.473 178.59 170.473ZM188.226 181H186.432V164.285H188.226V181ZM193.779 169.227V181H191.996V169.227H193.779ZM192.909 164.822C193.203 164.822 193.453 164.919 193.661 165.112C193.876 165.299 193.983 165.592 193.983 165.993C193.983 166.387 193.876 166.681 193.661 166.874C193.453 167.067 193.203 167.164 192.909 167.164C192.601 167.164 192.343 167.067 192.136 166.874C191.935 166.681 191.835 166.387 191.835 165.993C191.835 165.592 191.935 165.299 192.136 165.112C192.343 164.919 192.601 164.822 192.909 164.822ZM200.149 181L195.681 169.227H197.593L200.182 176.349C200.361 176.836 200.543 177.373 200.729 177.96C200.916 178.547 201.045 179.02 201.116 179.378H201.191C201.277 179.02 201.421 178.547 201.621 177.96C201.822 177.366 202.004 176.828 202.169 176.349L204.758 169.227H206.67L202.19 181H200.149ZM213.094 169.012C214.096 169.012 214.956 169.234 215.672 169.678C216.388 170.122 216.936 170.745 217.315 171.547C217.695 172.342 217.885 173.273 217.885 174.34V175.446H209.753C209.774 176.828 210.118 177.881 210.784 178.604C211.45 179.328 212.388 179.689 213.599 179.689C214.343 179.689 215.002 179.621 215.575 179.485C216.148 179.349 216.743 179.149 217.358 178.884V180.452C216.764 180.717 216.173 180.91 215.586 181.032C215.006 181.154 214.318 181.215 213.523 181.215C212.392 181.215 211.404 180.986 210.559 180.527C209.721 180.062 209.069 179.382 208.604 178.486C208.138 177.591 207.905 176.495 207.905 175.199C207.905 173.932 208.117 172.836 208.539 171.912C208.969 170.981 209.57 170.265 210.344 169.764C211.124 169.262 212.041 169.012 213.094 169.012ZM213.072 170.473C212.12 170.473 211.361 170.784 210.795 171.407C210.229 172.03 209.893 172.9 209.785 174.018H216.016C216.008 173.316 215.897 172.7 215.683 172.17C215.475 171.633 215.156 171.217 214.727 170.924C214.297 170.623 213.745 170.473 213.072 170.473ZM226.264 169.012C226.5 169.012 226.747 169.026 227.005 169.055C227.263 169.076 227.492 169.108 227.692 169.151L227.467 170.806C227.273 170.756 227.059 170.716 226.822 170.688C226.586 170.659 226.364 170.645 226.156 170.645C225.684 170.645 225.236 170.741 224.813 170.935C224.398 171.121 224.033 171.393 223.718 171.751C223.403 172.102 223.156 172.528 222.977 173.029C222.798 173.523 222.708 174.075 222.708 174.684V181H220.914V169.227H222.396L222.59 171.396H222.665C222.909 170.96 223.202 170.562 223.546 170.204C223.89 169.839 224.287 169.549 224.738 169.334C225.197 169.119 225.705 169.012 226.264 169.012ZM228.058 169.227H229.97L232.569 176.059C232.72 176.46 232.859 176.846 232.988 177.219C233.117 177.584 233.232 177.935 233.332 178.271C233.432 178.608 233.511 178.934 233.568 179.249H233.644C233.744 178.891 233.887 178.422 234.073 177.842C234.259 177.255 234.46 176.657 234.675 176.048L237.135 169.227H239.058L233.934 182.729C233.661 183.453 233.343 184.083 232.978 184.62C232.619 185.157 232.183 185.569 231.667 185.855C231.151 186.149 230.528 186.296 229.798 186.296C229.461 186.296 229.164 186.274 228.906 186.231C228.648 186.196 228.426 186.153 228.24 186.103V184.674C228.398 184.71 228.588 184.742 228.81 184.771C229.039 184.799 229.275 184.813 229.519 184.813C229.963 184.813 230.346 184.728 230.668 184.556C230.997 184.391 231.28 184.147 231.517 183.825C231.753 183.503 231.957 183.12 232.129 182.676L232.773 181.021L228.058 169.227Z" fill="black"/>
<path d="M156 123.5C156.779 123.5 157.432 123.26 157.959 122.781C158.486 122.302 158.75 121.708 158.75 121C158.75 120.292 158.486 119.698 157.959 119.219C157.432 118.74 156.779 118.5 156 118.5C155.221 118.5 154.568 118.74 154.041 119.219C153.514 119.698 153.25 120.292 153.25 121C153.25 121.708 153.514 122.302 154.041 122.781C154.568 123.26 155.221 123.5 156 123.5ZM156 138.5C154.212 138.5 152.597 138.052 151.153 137.156C149.709 136.26 148.667 135.083 148.025 133.625C147.796 133.625 147.59 133.635 147.406 133.656C147.223 133.677 147.017 133.688 146.788 133.688C144.404 133.688 142.365 132.917 140.669 131.375C138.973 129.833 138.125 127.979 138.125 125.812C138.125 124.938 138.285 124.094 138.606 123.281C138.927 122.469 139.408 121.708 140.05 121C139.454 120.292 138.996 119.531 138.675 118.719C138.354 117.906 138.194 117.062 138.194 116.188C138.194 114.021 139.03 112.167 140.703 110.625C142.376 109.083 144.404 108.312 146.788 108.312C147.017 108.312 147.223 108.323 147.406 108.344C147.59 108.365 147.796 108.375 148.025 108.375C148.667 106.917 149.709 105.74 151.153 104.844C152.597 103.948 154.212 103.5 156 103.5C157.788 103.5 159.403 103.948 160.847 104.844C162.291 105.74 163.333 106.917 163.975 108.375C164.204 108.375 164.41 108.365 164.594 108.344C164.777 108.323 164.983 108.312 165.213 108.312C167.596 108.312 169.624 109.083 171.297 110.625C172.97 112.167 173.806 114.021 173.806 116.188C173.806 117.062 173.657 117.906 173.359 118.719C173.061 119.531 172.592 120.292 171.95 121C172.546 121.708 173.004 122.469 173.325 123.281C173.646 124.094 173.806 124.938 173.806 125.812C173.806 127.979 172.97 129.833 171.297 131.375C169.624 132.917 167.596 133.688 165.213 133.688C164.983 133.688 164.777 133.677 164.594 133.656C164.41 133.635 164.204 133.625 163.975 133.625C163.333 135.083 162.291 136.26 160.847 137.156C159.403 138.052 157.788 138.5 156 138.5ZM156 156C156 152.917 156.653 150.01 157.959 147.281C159.266 144.552 161.042 142.167 163.288 140.125C165.533 138.083 168.157 136.469 171.159 135.281C174.161 134.094 177.358 133.5 180.75 133.5C180.75 136.583 180.097 139.49 178.791 142.219C177.484 144.948 175.708 147.333 173.463 149.375C171.217 151.417 168.593 153.031 165.591 154.219C162.589 155.406 159.392 156 156 156ZM162.738 149.875C165.35 149 167.642 147.667 169.612 145.875C171.583 144.083 173.05 142 174.013 139.625C171.4 140.5 169.108 141.833 167.138 143.625C165.167 145.417 163.7 147.5 162.738 149.875ZM156 156C156 152.917 155.347 150.01 154.041 147.281C152.734 144.552 150.958 142.167 148.712 140.125C146.467 138.083 143.843 136.469 140.841 135.281C137.839 134.094 134.642 133.5 131.25 133.5C131.25 136.583 131.903 139.49 133.209 142.219C134.516 144.948 136.292 147.333 138.538 149.375C140.783 151.417 143.407 153.031 146.409 154.219C149.411 155.406 152.608 156 156 156ZM149.263 149.875C146.65 149 144.358 147.667 142.387 145.875C140.417 144.083 138.95 142 137.988 139.625C140.6 140.5 142.892 141.833 144.863 143.625C146.833 145.417 148.3 147.5 149.263 149.875ZM165.213 128.688C166.083 128.688 166.828 128.406 167.447 127.844C168.066 127.281 168.375 126.604 168.375 125.812C168.375 125.229 168.203 124.719 167.859 124.281C167.516 123.844 167.069 123.5 166.519 123.25L164.112 122.188C164.021 122.646 163.883 123.094 163.7 123.531C163.517 123.969 163.31 124.375 163.081 124.75C162.852 125.125 162.577 125.479 162.256 125.812C161.935 126.146 161.592 126.458 161.225 126.75L163.425 128.188C163.654 128.354 163.918 128.479 164.216 128.562C164.514 128.646 164.846 128.688 165.213 128.688ZM164.112 119.812L166.519 118.75C167.069 118.5 167.504 118.146 167.825 117.688C168.146 117.229 168.306 116.729 168.306 116.188C168.306 115.396 168.008 114.719 167.413 114.156C166.817 113.594 166.083 113.312 165.213 113.312C164.846 113.312 164.525 113.354 164.25 113.438C163.975 113.521 163.7 113.646 163.425 113.812L161.156 115.25C161.523 115.542 161.878 115.854 162.222 116.188C162.566 116.521 162.852 116.875 163.081 117.25C163.31 117.625 163.517 118.031 163.7 118.469C163.883 118.906 164.021 119.354 164.112 119.812ZM153.181 114C153.64 113.833 154.098 113.708 154.556 113.625C155.015 113.542 155.496 113.5 156 113.5C156.504 113.5 156.985 113.542 157.444 113.625C157.902 113.708 158.36 113.833 158.819 114L159.163 111.25C159.254 110.5 158.968 109.854 158.303 109.312C157.639 108.771 156.871 108.5 156 108.5C155.129 108.5 154.361 108.771 153.697 109.312C153.032 109.854 152.746 110.5 152.837 111.25L153.181 114ZM156 133.5C156.871 133.5 157.639 133.229 158.303 132.688C158.968 132.146 159.254 131.5 159.163 130.75L158.819 128C158.36 128.167 157.902 128.292 157.444 128.375C156.985 128.458 156.504 128.5 156 128.5C155.496 128.5 155.015 128.458 154.556 128.375C154.098 128.292 153.64 128.167 153.181 128L152.837 130.75C152.746 131.5 153.032 132.146 153.697 132.688C154.361 133.229 155.129 133.5 156 133.5ZM147.888 119.812C147.979 119.354 148.117 118.906 148.3 118.469C148.483 118.031 148.69 117.625 148.919 117.25C149.148 116.875 149.423 116.521 149.744 116.188C150.065 115.854 150.408 115.542 150.775 115.25L148.575 113.812C148.346 113.646 148.082 113.521 147.784 113.438C147.486 113.354 147.154 113.312 146.788 113.312C145.917 113.312 145.172 113.594 144.553 114.156C143.934 114.719 143.625 115.396 143.625 116.188C143.625 116.729 143.797 117.229 144.141 117.688C144.484 118.146 144.931 118.5 145.481 118.75L147.888 119.812ZM146.788 128.625C147.154 128.625 147.475 128.594 147.75 128.531C148.025 128.469 148.3 128.333 148.575 128.125L150.844 126.75C150.477 126.458 150.122 126.146 149.778 125.812C149.434 125.479 149.148 125.125 148.919 124.75C148.69 124.375 148.483 123.969 148.3 123.531C148.117 123.094 147.979 122.646 147.888 122.188L145.481 123.25C144.931 123.5 144.496 123.854 144.175 124.312C143.854 124.771 143.694 125.271 143.694 125.812C143.74 126.604 144.049 127.271 144.622 127.812C145.195 128.354 145.917 128.625 146.788 128.625Z" fill="#009CA6"/>
</svg>
