<svg width="325" height="300" viewBox="0 0 325 300" fill="none" xmlns="http://www.w3.org/2000/svg">
<path d="M0 0H325V300H0V0Z" fill="#FAFBFC"/>
<path d="M108.682 172.771H114.171V180.388C113.347 180.667 112.499 180.875 111.625 181.011C110.758 181.147 109.788 181.215 108.714 181.215C107.081 181.215 105.702 180.889 104.578 180.237C103.461 179.586 102.612 178.658 102.032 177.455C101.452 176.245 101.162 174.809 101.162 173.147C101.162 171.522 101.481 170.104 102.118 168.894C102.763 167.683 103.69 166.745 104.9 166.079C106.118 165.406 107.579 165.069 109.283 165.069C110.157 165.069 110.984 165.152 111.765 165.316C112.552 165.474 113.283 165.7 113.956 165.993L113.258 167.583C112.678 167.332 112.037 167.118 111.335 166.938C110.64 166.759 109.921 166.67 109.176 166.67C107.894 166.67 106.795 166.935 105.878 167.465C104.968 167.995 104.27 168.743 103.783 169.71C103.303 170.677 103.063 171.823 103.063 173.147C103.063 174.458 103.275 175.6 103.697 176.574C104.12 177.541 104.779 178.293 105.674 178.83C106.569 179.367 107.722 179.636 109.133 179.636C109.842 179.636 110.451 179.596 110.959 179.518C111.467 179.432 111.929 179.331 112.345 179.217V174.404H108.682V172.771ZM119.488 169.227V181H117.705V169.227H119.488ZM118.618 164.822C118.912 164.822 119.162 164.919 119.37 165.112C119.585 165.299 119.692 165.592 119.692 165.993C119.692 166.387 119.585 166.681 119.37 166.874C119.162 167.067 118.912 167.164 118.618 167.164C118.31 167.164 118.052 167.067 117.845 166.874C117.644 166.681 117.544 166.387 117.544 165.993C117.544 165.592 117.644 165.299 117.845 165.112C118.052 164.919 118.31 164.822 118.618 164.822ZM128.512 170.623H125.579V181H123.796V170.623H121.712V169.764L123.796 169.173V168.389C123.796 167.4 123.943 166.598 124.236 165.982C124.53 165.359 124.956 164.901 125.515 164.607C126.073 164.314 126.754 164.167 127.556 164.167C128.007 164.167 128.419 164.206 128.791 164.285C129.171 164.364 129.504 164.453 129.79 164.554L129.328 165.961C129.085 165.882 128.809 165.811 128.501 165.746C128.2 165.674 127.892 165.639 127.577 165.639C126.897 165.639 126.392 165.861 126.062 166.305C125.74 166.742 125.579 167.429 125.579 168.367V169.227H128.512V170.623ZM134.484 179.754C134.778 179.754 135.079 179.729 135.387 179.679C135.695 179.629 135.945 179.568 136.139 179.496V180.882C135.931 180.975 135.641 181.054 135.269 181.118C134.903 181.183 134.545 181.215 134.194 181.215C133.571 181.215 133.006 181.107 132.497 180.893C131.989 180.671 131.58 180.298 131.272 179.775C130.972 179.253 130.821 178.529 130.821 177.605V170.623H129.146V169.753L130.832 169.055L131.541 166.498H132.615V169.227H136.063V170.623H132.615V177.552C132.615 178.289 132.784 178.841 133.12 179.206C133.464 179.571 133.919 179.754 134.484 179.754ZM156.979 172.997C156.979 174.766 156.656 176.245 156.012 177.434C155.367 178.615 154.433 179.507 153.208 180.108C151.991 180.703 150.512 181 148.771 181H144.507V165.295H149.244C150.841 165.295 152.216 165.589 153.369 166.176C154.522 166.756 155.41 167.619 156.033 168.765C156.663 169.903 156.979 171.314 156.979 172.997ZM155.056 173.062C155.056 171.651 154.819 170.487 154.347 169.57C153.881 168.654 153.194 167.973 152.284 167.529C151.382 167.078 150.275 166.853 148.965 166.853H146.333V179.432H148.557C150.719 179.432 152.341 178.898 153.423 177.831C154.511 176.764 155.056 175.174 155.056 173.062ZM164.734 169.012C165.737 169.012 166.596 169.234 167.312 169.678C168.029 170.122 168.576 170.745 168.956 171.547C169.336 172.342 169.525 173.273 169.525 174.34V175.446H161.394C161.415 176.828 161.759 177.881 162.425 178.604C163.091 179.328 164.029 179.689 165.239 179.689C165.984 179.689 166.643 179.621 167.216 179.485C167.789 179.349 168.383 179.149 168.999 178.884V180.452C168.405 180.717 167.814 180.91 167.227 181.032C166.646 181.154 165.959 181.215 165.164 181.215C164.033 181.215 163.044 180.986 162.199 180.527C161.361 180.062 160.71 179.382 160.244 178.486C159.779 177.591 159.546 176.495 159.546 175.199C159.546 173.932 159.757 172.836 160.18 171.912C160.609 170.981 161.211 170.265 161.984 169.764C162.765 169.262 163.682 169.012 164.734 169.012ZM164.713 170.473C163.76 170.473 163.001 170.784 162.436 171.407C161.87 172.03 161.533 172.9 161.426 174.018H167.656C167.649 173.316 167.538 172.7 167.323 172.17C167.116 171.633 166.797 171.217 166.367 170.924C165.938 170.623 165.386 170.473 164.713 170.473ZM174.349 181H172.555V164.285H174.349V181ZM179.902 169.227V181H178.119V169.227H179.902ZM179.032 164.822C179.326 164.822 179.576 164.919 179.784 165.112C179.999 165.299 180.106 165.592 180.106 165.993C180.106 166.387 179.999 166.681 179.784 166.874C179.576 167.067 179.326 167.164 179.032 167.164C178.724 167.164 178.466 167.067 178.259 166.874C178.058 166.681 177.958 166.387 177.958 165.993C177.958 165.592 178.058 165.299 178.259 165.112C178.466 164.919 178.724 164.822 179.032 164.822ZM186.272 181L181.804 169.227H183.716L186.305 176.349C186.484 176.836 186.666 177.373 186.853 177.96C187.039 178.547 187.168 179.02 187.239 179.378H187.314C187.4 179.02 187.544 178.547 187.744 177.96C187.945 177.366 188.127 176.828 188.292 176.349L190.881 169.227H192.793L188.313 181H186.272ZM199.217 169.012C200.219 169.012 201.079 169.234 201.795 169.678C202.511 170.122 203.059 170.745 203.438 171.547C203.818 172.342 204.008 173.273 204.008 174.34V175.446H195.876C195.897 176.828 196.241 177.881 196.907 178.604C197.573 179.328 198.511 179.689 199.722 179.689C200.466 179.689 201.125 179.621 201.698 179.485C202.271 179.349 202.866 179.149 203.481 178.884V180.452C202.887 180.717 202.296 180.91 201.709 181.032C201.129 181.154 200.441 181.215 199.646 181.215C198.515 181.215 197.527 180.986 196.682 180.527C195.844 180.062 195.192 179.382 194.727 178.486C194.261 177.591 194.028 176.495 194.028 175.199C194.028 173.932 194.24 172.836 194.662 171.912C195.092 170.981 195.693 170.265 196.467 169.764C197.247 169.262 198.164 169.012 199.217 169.012ZM199.195 170.473C198.243 170.473 197.484 170.784 196.918 171.407C196.352 172.03 196.016 172.9 195.908 174.018H202.139C202.132 173.316 202.021 172.7 201.806 172.17C201.598 171.633 201.279 171.217 200.85 170.924C200.42 170.623 199.868 170.473 199.195 170.473ZM212.387 169.012C212.623 169.012 212.87 169.026 213.128 169.055C213.386 169.076 213.615 169.108 213.815 169.151L213.59 170.806C213.396 170.756 213.182 170.716 212.945 170.688C212.709 170.659 212.487 170.645 212.279 170.645C211.807 170.645 211.359 170.741 210.937 170.935C210.521 171.121 210.156 171.393 209.841 171.751C209.526 172.102 209.279 172.528 209.1 173.029C208.921 173.523 208.831 174.075 208.831 174.684V181H207.037V169.227H208.52L208.713 171.396H208.788C209.032 170.96 209.325 170.562 209.669 170.204C210.013 169.839 210.41 169.549 210.861 169.334C211.32 169.119 211.828 169.012 212.387 169.012ZM214.181 169.227H216.093L218.692 176.059C218.843 176.46 218.982 176.846 219.111 177.219C219.24 177.584 219.355 177.935 219.455 178.271C219.555 178.608 219.634 178.934 219.691 179.249H219.767C219.867 178.891 220.01 178.422 220.196 177.842C220.382 177.255 220.583 176.657 220.798 176.048L223.258 169.227H225.181L220.057 182.729C219.785 183.453 219.466 184.083 219.101 184.62C218.743 185.157 218.306 185.569 217.79 185.855C217.274 186.149 216.651 186.296 215.921 186.296C215.584 186.296 215.287 186.274 215.029 186.231C214.771 186.196 214.549 186.153 214.363 186.103V184.674C214.521 184.71 214.711 184.742 214.933 184.771C215.162 184.799 215.398 184.813 215.642 184.813C216.086 184.813 216.469 184.728 216.791 184.556C217.12 184.391 217.403 184.147 217.64 183.825C217.876 183.503 218.08 183.12 218.252 182.676L218.896 181.021L214.181 169.227Z" fill="black"/>
<path d="M141 153V125.5H135.5V110.5H149.8C149.571 110.125 149.422 109.729 149.353 109.312C149.284 108.896 149.25 108.458 149.25 108C149.25 105.917 150.052 104.146 151.656 102.688C153.26 101.229 155.208 100.5 157.5 100.5C158.554 100.5 159.54 100.677 160.456 101.031C161.373 101.385 162.221 101.875 163 102.5C163.779 101.833 164.627 101.333 165.544 101C166.46 100.667 167.446 100.5 168.5 100.5C170.792 100.5 172.74 101.229 174.344 102.688C175.948 104.146 176.75 105.917 176.75 108C176.75 108.458 176.704 108.885 176.613 109.281C176.521 109.677 176.383 110.083 176.2 110.5H190.5V125.5H185V153H141ZM168.5 105.5C167.721 105.5 167.068 105.74 166.541 106.219C166.014 106.698 165.75 107.292 165.75 108C165.75 108.708 166.014 109.302 166.541 109.781C167.068 110.26 167.721 110.5 168.5 110.5C169.279 110.5 169.932 110.26 170.459 109.781C170.986 109.302 171.25 108.708 171.25 108C171.25 107.292 170.986 106.698 170.459 106.219C169.932 105.74 169.279 105.5 168.5 105.5ZM154.75 108C154.75 108.708 155.014 109.302 155.541 109.781C156.068 110.26 156.721 110.5 157.5 110.5C158.279 110.5 158.932 110.26 159.459 109.781C159.986 109.302 160.25 108.708 160.25 108C160.25 107.292 159.986 106.698 159.459 106.219C158.932 105.74 158.279 105.5 157.5 105.5C156.721 105.5 156.068 105.74 155.541 106.219C155.014 106.698 154.75 107.292 154.75 108ZM141 115.5V120.5H160.25V115.5H141ZM160.25 148V125.5H146.5V148H160.25ZM165.75 148H179.5V125.5H165.75V148ZM185 120.5V115.5H165.75V120.5H185Z" fill="#009CA6"/>
</svg>
