<svg width="325" height="300" viewBox="0 0 325 300" fill="none" xmlns="http://www.w3.org/2000/svg">
<path d="M0 0H325V300H0V0Z" fill="white"/>
<path d="M81.2197 185L75.9453 171.1H75.8594C75.888 171.393 75.9131 171.751 75.9346 172.174C75.9561 172.596 75.974 173.058 75.9883 173.56C76.0026 174.054 76.0098 174.559 76.0098 175.074V185H74.3125V169.295H77.0195L81.9932 182.357H82.0684L87.1172 169.295H89.8027V185H87.998V174.945C87.998 174.48 88.0052 174.014 88.0195 173.549C88.0339 173.076 88.0518 172.632 88.0732 172.217C88.0947 171.794 88.1162 171.429 88.1377 171.121H88.0518L82.7129 185H81.2197ZM98.3643 173.012C99.3669 173.012 100.226 173.234 100.942 173.678C101.659 174.122 102.206 174.745 102.586 175.547C102.965 176.342 103.155 177.273 103.155 178.34V179.446H95.0234C95.0449 180.828 95.3887 181.881 96.0547 182.604C96.7207 183.328 97.6589 183.689 98.8691 183.689C99.6139 183.689 100.273 183.621 100.846 183.485C101.419 183.349 102.013 183.149 102.629 182.884V184.452C102.035 184.717 101.444 184.91 100.856 185.032C100.276 185.154 99.5889 185.215 98.7939 185.215C97.6624 185.215 96.6742 184.986 95.8291 184.527C94.9912 184.062 94.3395 183.382 93.874 182.486C93.4085 181.591 93.1758 180.495 93.1758 179.199C93.1758 177.932 93.387 176.836 93.8096 175.912C94.2393 174.981 94.8408 174.265 95.6143 173.764C96.3949 173.262 97.3115 173.012 98.3643 173.012ZM98.3428 174.473C97.3903 174.473 96.6312 174.784 96.0654 175.407C95.4997 176.03 95.1631 176.9 95.0557 178.018H101.286C101.279 177.316 101.168 176.7 100.953 176.17C100.745 175.633 100.427 175.217 99.9971 174.924C99.5674 174.623 99.016 174.473 98.3428 174.473ZM110.374 185.215C108.884 185.215 107.703 184.706 106.829 183.689C105.963 182.673 105.529 181.161 105.529 179.156C105.529 177.13 105.973 175.601 106.861 174.569C107.749 173.531 108.931 173.012 110.406 173.012C111.029 173.012 111.574 173.094 112.039 173.259C112.505 173.424 112.906 173.646 113.242 173.925C113.579 174.197 113.862 174.508 114.091 174.859H114.22C114.191 174.637 114.162 174.333 114.134 173.946C114.105 173.56 114.091 173.244 114.091 173.001V168.285H115.874V185H114.435L114.166 183.324H114.091C113.869 183.675 113.586 183.994 113.242 184.28C112.906 184.567 112.501 184.796 112.028 184.968C111.563 185.132 111.011 185.215 110.374 185.215ZM110.653 183.732C111.914 183.732 112.805 183.374 113.328 182.658C113.851 181.942 114.112 180.879 114.112 179.468V179.146C114.112 177.649 113.862 176.499 113.36 175.697C112.866 174.895 111.964 174.494 110.653 174.494C109.558 174.494 108.738 174.917 108.193 175.762C107.649 176.6 107.377 177.745 107.377 179.199C107.377 180.646 107.646 181.763 108.183 182.551C108.727 183.339 109.55 183.732 110.653 183.732ZM121.438 173.227V185H119.655V173.227H121.438ZM120.568 168.822C120.862 168.822 121.113 168.919 121.32 169.112C121.535 169.299 121.643 169.592 121.643 169.993C121.643 170.387 121.535 170.681 121.32 170.874C121.113 171.067 120.862 171.164 120.568 171.164C120.26 171.164 120.003 171.067 119.795 170.874C119.594 170.681 119.494 170.387 119.494 169.993C119.494 169.592 119.594 169.299 119.795 169.112C120.003 168.919 120.26 168.822 120.568 168.822ZM129.936 185.215C128.876 185.215 127.941 184.996 127.132 184.56C126.323 184.123 125.692 183.457 125.241 182.562C124.79 181.666 124.564 180.538 124.564 179.178C124.564 177.753 124.801 176.589 125.273 175.687C125.753 174.777 126.412 174.104 127.25 173.667C128.088 173.23 129.04 173.012 130.107 173.012C130.695 173.012 131.26 173.073 131.805 173.194C132.356 173.309 132.807 173.456 133.158 173.635L132.621 175.128C132.263 174.985 131.848 174.856 131.375 174.741C130.91 174.627 130.473 174.569 130.064 174.569C129.248 174.569 128.568 174.745 128.023 175.096C127.486 175.447 127.082 175.962 126.81 176.643C126.545 177.323 126.412 178.161 126.412 179.156C126.412 180.109 126.541 180.922 126.799 181.595C127.064 182.268 127.454 182.784 127.97 183.142C128.493 183.493 129.144 183.668 129.925 183.668C130.548 183.668 131.11 183.604 131.611 183.475C132.113 183.339 132.567 183.181 132.976 183.002V184.592C132.582 184.792 132.141 184.946 131.654 185.054C131.174 185.161 130.602 185.215 129.936 185.215ZM137.552 173.227V185H135.769V173.227H137.552ZM136.682 168.822C136.975 168.822 137.226 168.919 137.434 169.112C137.648 169.299 137.756 169.592 137.756 169.993C137.756 170.387 137.648 170.681 137.434 170.874C137.226 171.067 136.975 171.164 136.682 171.164C136.374 171.164 136.116 171.067 135.908 170.874C135.708 170.681 135.607 170.387 135.607 169.993C135.607 169.592 135.708 169.299 135.908 169.112C136.116 168.919 136.374 168.822 136.682 168.822ZM146.908 173.012C148.305 173.012 149.361 173.355 150.077 174.043C150.793 174.723 151.151 175.819 151.151 177.33V185H149.39V177.448C149.39 176.467 149.164 175.733 148.713 175.246C148.269 174.759 147.585 174.516 146.661 174.516C145.358 174.516 144.441 174.884 143.911 175.622C143.381 176.36 143.116 177.43 143.116 178.834V185H141.333V173.227H142.772L143.041 174.924H143.138C143.388 174.508 143.707 174.161 144.094 173.882C144.48 173.595 144.914 173.381 145.394 173.237C145.873 173.087 146.378 173.012 146.908 173.012ZM159.358 173.012C160.361 173.012 161.22 173.234 161.937 173.678C162.653 174.122 163.201 174.745 163.58 175.547C163.96 176.342 164.149 177.273 164.149 178.34V179.446H156.018C156.039 180.828 156.383 181.881 157.049 182.604C157.715 183.328 158.653 183.689 159.863 183.689C160.608 183.689 161.267 183.621 161.84 183.485C162.413 183.349 163.007 183.149 163.623 182.884V184.452C163.029 184.717 162.438 184.91 161.851 185.032C161.271 185.154 160.583 185.215 159.788 185.215C158.657 185.215 157.668 184.986 156.823 184.527C155.985 184.062 155.334 183.382 154.868 182.486C154.403 181.591 154.17 180.495 154.17 179.199C154.17 177.932 154.381 176.836 154.804 175.912C155.233 174.981 155.835 174.265 156.608 173.764C157.389 173.262 158.306 173.012 159.358 173.012ZM159.337 174.473C158.384 174.473 157.625 174.784 157.06 175.407C156.494 176.03 156.157 176.9 156.05 178.018H162.28C162.273 177.316 162.162 176.7 161.947 176.17C161.74 175.633 161.421 175.217 160.991 174.924C160.562 174.623 160.01 174.473 159.337 174.473ZM185.634 176.997C185.634 178.766 185.312 180.245 184.667 181.434C184.022 182.615 183.088 183.507 181.863 184.108C180.646 184.703 179.167 185 177.427 185H173.162V169.295H177.899C179.496 169.295 180.871 169.589 182.024 170.176C183.177 170.756 184.065 171.619 184.688 172.765C185.319 173.903 185.634 175.314 185.634 176.997ZM183.711 177.062C183.711 175.651 183.475 174.487 183.002 173.57C182.536 172.654 181.849 171.973 180.939 171.529C180.037 171.078 178.931 170.853 177.62 170.853H174.988V183.432H177.212C179.375 183.432 180.997 182.898 182.078 181.831C183.167 180.764 183.711 179.174 183.711 177.062ZM193.39 173.012C194.392 173.012 195.252 173.234 195.968 173.678C196.684 174.122 197.232 174.745 197.611 175.547C197.991 176.342 198.181 177.273 198.181 178.34V179.446H190.049C190.07 180.828 190.414 181.881 191.08 182.604C191.746 183.328 192.684 183.689 193.895 183.689C194.639 183.689 195.298 183.621 195.871 183.485C196.444 183.349 197.038 183.149 197.654 182.884V184.452C197.06 184.717 196.469 184.91 195.882 185.032C195.302 185.154 194.614 185.215 193.819 185.215C192.688 185.215 191.7 184.986 190.854 184.527C190.017 184.062 189.365 183.382 188.899 182.486C188.434 181.591 188.201 180.495 188.201 179.199C188.201 177.932 188.412 176.836 188.835 175.912C189.265 174.981 189.866 174.265 190.64 173.764C191.42 173.262 192.337 173.012 193.39 173.012ZM193.368 174.473C192.416 174.473 191.657 174.784 191.091 175.407C190.525 176.03 190.188 176.9 190.081 178.018H196.312C196.304 177.316 196.193 176.7 195.979 176.17C195.771 175.633 195.452 175.217 195.022 174.924C194.593 174.623 194.041 174.473 193.368 174.473ZM203.004 185H201.21V168.285H203.004V185ZM208.558 173.227V185H206.774V173.227H208.558ZM207.688 168.822C207.981 168.822 208.232 168.919 208.439 169.112C208.654 169.299 208.762 169.592 208.762 169.993C208.762 170.387 208.654 170.681 208.439 170.874C208.232 171.067 207.981 171.164 207.688 171.164C207.38 171.164 207.122 171.067 206.914 170.874C206.714 170.681 206.613 170.387 206.613 169.993C206.613 169.592 206.714 169.299 206.914 169.112C207.122 168.919 207.38 168.822 207.688 168.822ZM214.928 185L210.459 173.227H212.371L214.96 180.349C215.139 180.836 215.322 181.373 215.508 181.96C215.694 182.547 215.823 183.02 215.895 183.378H215.97C216.056 183.02 216.199 182.547 216.399 181.96C216.6 181.366 216.783 180.828 216.947 180.349L219.536 173.227H221.448L216.969 185H214.928ZM227.872 173.012C228.875 173.012 229.734 173.234 230.45 173.678C231.166 174.122 231.714 174.745 232.094 175.547C232.473 176.342 232.663 177.273 232.663 178.34V179.446H224.531C224.553 180.828 224.896 181.881 225.562 182.604C226.229 183.328 227.167 183.689 228.377 183.689C229.122 183.689 229.781 183.621 230.354 183.485C230.926 183.349 231.521 183.149 232.137 182.884V184.452C231.542 184.717 230.951 184.91 230.364 185.032C229.784 185.154 229.097 185.215 228.302 185.215C227.17 185.215 226.182 184.986 225.337 184.527C224.499 184.062 223.847 183.382 223.382 182.486C222.916 181.591 222.684 180.495 222.684 179.199C222.684 177.932 222.895 176.836 223.317 175.912C223.747 174.981 224.349 174.265 225.122 173.764C225.903 173.262 226.819 173.012 227.872 173.012ZM227.851 174.473C226.898 174.473 226.139 174.784 225.573 175.407C225.007 176.03 224.671 176.9 224.563 178.018H230.794C230.787 177.316 230.676 176.7 230.461 176.17C230.253 175.633 229.935 175.217 229.505 174.924C229.075 174.623 228.524 174.473 227.851 174.473ZM241.042 173.012C241.278 173.012 241.525 173.026 241.783 173.055C242.041 173.076 242.27 173.108 242.471 173.151L242.245 174.806C242.052 174.756 241.837 174.716 241.601 174.688C241.364 174.659 241.142 174.645 240.935 174.645C240.462 174.645 240.014 174.741 239.592 174.935C239.176 175.121 238.811 175.393 238.496 175.751C238.181 176.102 237.934 176.528 237.755 177.029C237.576 177.523 237.486 178.075 237.486 178.684V185H235.692V173.227H237.175L237.368 175.396H237.443C237.687 174.96 237.98 174.562 238.324 174.204C238.668 173.839 239.065 173.549 239.517 173.334C239.975 173.119 240.483 173.012 241.042 173.012ZM242.836 173.227H244.748L247.348 180.059C247.498 180.46 247.638 180.846 247.767 181.219C247.896 181.584 248.01 181.935 248.11 182.271C248.211 182.608 248.289 182.934 248.347 183.249H248.422C248.522 182.891 248.665 182.422 248.852 181.842C249.038 181.255 249.238 180.657 249.453 180.048L251.913 173.227H253.836L248.712 186.729C248.44 187.453 248.121 188.083 247.756 188.62C247.398 189.157 246.961 189.569 246.445 189.855C245.93 190.149 245.307 190.296 244.576 190.296C244.24 190.296 243.942 190.274 243.685 190.231C243.427 190.196 243.205 190.153 243.019 190.103V188.674C243.176 188.71 243.366 188.742 243.588 188.771C243.817 188.799 244.053 188.813 244.297 188.813C244.741 188.813 245.124 188.728 245.446 188.556C245.776 188.391 246.059 188.147 246.295 187.825C246.531 187.503 246.735 187.12 246.907 186.676L247.552 185.021L242.836 173.227Z" fill="black"/>
<path d="M159.125 141.25H167.375V135H174.25V127.5H167.375V121.25H159.125V127.5H152.25V135H159.125V141.25ZM149.5 150C147.987 150 146.693 149.51 145.616 148.531C144.539 147.552 144 146.375 144 145V117.5C144 116.125 144.539 114.948 145.616 113.969C146.693 112.99 147.987 112.5 149.5 112.5H177C178.513 112.5 179.807 112.99 180.884 113.969C181.961 114.948 182.5 116.125 182.5 117.5V145C182.5 146.375 181.961 147.552 180.884 148.531C179.807 149.51 178.513 150 177 150H149.5ZM149.5 145H177V117.5H149.5V145ZM146.75 110V105H179.75V110H146.75Z" fill="black"/>
</svg>
