<svg width="325" height="300" viewBox="0 0 325 300" fill="none" xmlns="http://www.w3.org/2000/svg">
<path d="M0 0H325V300H0V0Z" fill="white"/>
<path d="M93.0498 181L87.7754 167.1H87.6895C87.7181 167.393 87.7432 167.751 87.7646 168.174C87.7861 168.596 87.804 169.058 87.8184 169.56C87.8327 170.054 87.8398 170.559 87.8398 171.074V181H86.1426V165.295H88.8496L93.8232 178.357H93.8984L98.9473 165.295H101.633V181H99.8281V170.945C99.8281 170.48 99.8353 170.014 99.8496 169.549C99.8639 169.076 99.8818 168.632 99.9033 168.217C99.9248 167.794 99.9463 167.429 99.9678 167.121H99.8818L94.543 181H93.0498ZM110.194 169.012C111.197 169.012 112.056 169.234 112.772 169.678C113.489 170.122 114.036 170.745 114.416 171.547C114.796 172.342 114.985 173.273 114.985 174.34V175.446H106.854C106.875 176.828 107.219 177.881 107.885 178.604C108.551 179.328 109.489 179.689 110.699 179.689C111.444 179.689 112.103 179.621 112.676 179.485C113.249 179.349 113.843 179.149 114.459 178.884V180.452C113.865 180.717 113.274 180.91 112.687 181.032C112.106 181.154 111.419 181.215 110.624 181.215C109.493 181.215 108.504 180.986 107.659 180.527C106.821 180.062 106.17 179.382 105.704 178.486C105.239 177.591 105.006 176.495 105.006 175.199C105.006 173.932 105.217 172.836 105.64 171.912C106.069 170.981 106.671 170.265 107.444 169.764C108.225 169.262 109.142 169.012 110.194 169.012ZM110.173 170.473C109.22 170.473 108.461 170.784 107.896 171.407C107.33 172.03 106.993 172.9 106.886 174.018H113.116C113.109 173.316 112.998 172.7 112.783 172.17C112.576 171.633 112.257 171.217 111.827 170.924C111.397 170.623 110.846 170.473 110.173 170.473ZM122.204 181.215C120.715 181.215 119.533 180.706 118.659 179.689C117.793 178.673 117.359 177.161 117.359 175.156C117.359 173.13 117.803 171.601 118.691 170.569C119.579 169.531 120.761 169.012 122.236 169.012C122.859 169.012 123.404 169.094 123.869 169.259C124.335 169.424 124.736 169.646 125.072 169.925C125.409 170.197 125.692 170.508 125.921 170.859H126.05C126.021 170.637 125.993 170.333 125.964 169.946C125.935 169.56 125.921 169.244 125.921 169.001V164.285H127.704V181H126.265L125.996 179.324H125.921C125.699 179.675 125.416 179.994 125.072 180.28C124.736 180.567 124.331 180.796 123.858 180.968C123.393 181.132 122.841 181.215 122.204 181.215ZM122.483 179.732C123.744 179.732 124.635 179.374 125.158 178.658C125.681 177.942 125.942 176.879 125.942 175.468V175.146C125.942 173.649 125.692 172.499 125.19 171.697C124.696 170.895 123.794 170.494 122.483 170.494C121.388 170.494 120.568 170.917 120.023 171.762C119.479 172.6 119.207 173.745 119.207 175.199C119.207 176.646 119.476 177.763 120.013 178.551C120.557 179.339 121.381 179.732 122.483 179.732ZM133.269 169.227V181H131.485V169.227H133.269ZM132.398 164.822C132.692 164.822 132.943 164.919 133.15 165.112C133.365 165.299 133.473 165.592 133.473 165.993C133.473 166.387 133.365 166.681 133.15 166.874C132.943 167.067 132.692 167.164 132.398 167.164C132.09 167.164 131.833 167.067 131.625 166.874C131.424 166.681 131.324 166.387 131.324 165.993C131.324 165.592 131.424 165.299 131.625 165.112C131.833 164.919 132.09 164.822 132.398 164.822ZM141.766 181.215C140.706 181.215 139.771 180.996 138.962 180.56C138.153 180.123 137.522 179.457 137.071 178.562C136.62 177.666 136.395 176.538 136.395 175.178C136.395 173.753 136.631 172.589 137.104 171.687C137.583 170.777 138.242 170.104 139.08 169.667C139.918 169.23 140.87 169.012 141.938 169.012C142.525 169.012 143.09 169.073 143.635 169.194C144.186 169.309 144.637 169.456 144.988 169.635L144.451 171.128C144.093 170.985 143.678 170.856 143.205 170.741C142.74 170.627 142.303 170.569 141.895 170.569C141.078 170.569 140.398 170.745 139.854 171.096C139.316 171.447 138.912 171.962 138.64 172.643C138.375 173.323 138.242 174.161 138.242 175.156C138.242 176.109 138.371 176.922 138.629 177.595C138.894 178.268 139.284 178.784 139.8 179.142C140.323 179.493 140.974 179.668 141.755 179.668C142.378 179.668 142.94 179.604 143.441 179.475C143.943 179.339 144.397 179.181 144.806 179.002V180.592C144.412 180.792 143.971 180.946 143.484 181.054C143.005 181.161 142.432 181.215 141.766 181.215ZM152.003 169.033C153.407 169.033 154.449 169.348 155.129 169.979C155.809 170.609 156.149 171.615 156.149 172.997V181H154.85L154.506 179.26H154.42C154.09 179.689 153.747 180.051 153.389 180.345C153.031 180.631 152.615 180.85 152.143 181C151.677 181.143 151.104 181.215 150.424 181.215C149.708 181.215 149.07 181.09 148.512 180.839C147.96 180.588 147.523 180.209 147.201 179.7C146.886 179.192 146.729 178.547 146.729 177.767C146.729 176.592 147.194 175.69 148.125 175.06C149.056 174.429 150.474 174.086 152.379 174.028L154.409 173.942V173.223C154.409 172.206 154.191 171.493 153.754 171.085C153.317 170.677 152.701 170.473 151.906 170.473C151.29 170.473 150.703 170.562 150.145 170.741C149.586 170.92 149.056 171.132 148.555 171.375L148.007 170.021C148.537 169.749 149.146 169.517 149.833 169.323C150.521 169.13 151.244 169.033 152.003 169.033ZM154.388 175.199L152.594 175.274C151.126 175.332 150.091 175.572 149.489 175.994C148.888 176.417 148.587 177.015 148.587 177.788C148.587 178.461 148.791 178.959 149.199 179.281C149.607 179.604 150.148 179.765 150.821 179.765C151.867 179.765 152.723 179.475 153.389 178.895C154.055 178.314 154.388 177.444 154.388 176.284V175.199ZM161.617 181H159.823V164.285H161.617V181ZM183.843 172.997C183.843 174.766 183.521 176.245 182.876 177.434C182.231 178.615 181.297 179.507 180.072 180.108C178.855 180.703 177.376 181 175.636 181H171.371V165.295H176.108C177.705 165.295 179.08 165.589 180.233 166.176C181.386 166.756 182.274 167.619 182.897 168.765C183.528 169.903 183.843 171.314 183.843 172.997ZM181.92 173.062C181.92 171.651 181.684 170.487 181.211 169.57C180.745 168.654 180.058 167.973 179.148 167.529C178.246 167.078 177.14 166.853 175.829 166.853H173.197V179.432H175.421C177.584 179.432 179.206 178.898 180.287 177.831C181.376 176.764 181.92 175.174 181.92 173.062ZM191.599 169.012C192.601 169.012 193.461 169.234 194.177 169.678C194.893 170.122 195.441 170.745 195.82 171.547C196.2 172.342 196.39 173.273 196.39 174.34V175.446H188.258C188.279 176.828 188.623 177.881 189.289 178.604C189.955 179.328 190.893 179.689 192.104 179.689C192.848 179.689 193.507 179.621 194.08 179.485C194.653 179.349 195.247 179.149 195.863 178.884V180.452C195.269 180.717 194.678 180.91 194.091 181.032C193.511 181.154 192.823 181.215 192.028 181.215C190.897 181.215 189.909 180.986 189.063 180.527C188.226 180.062 187.574 179.382 187.108 178.486C186.643 177.591 186.41 176.495 186.41 175.199C186.41 173.932 186.621 172.836 187.044 171.912C187.474 170.981 188.075 170.265 188.849 169.764C189.629 169.262 190.546 169.012 191.599 169.012ZM191.577 170.473C190.625 170.473 189.866 170.784 189.3 171.407C188.734 172.03 188.397 172.9 188.29 174.018H194.521C194.513 173.316 194.402 172.7 194.188 172.17C193.98 171.633 193.661 171.217 193.231 170.924C192.802 170.623 192.25 170.473 191.577 170.473ZM202.008 181L197.539 169.227H199.451L202.04 176.349C202.219 176.836 202.402 177.373 202.588 177.96C202.774 178.547 202.903 179.02 202.975 179.378H203.05C203.136 179.02 203.279 178.547 203.479 177.96C203.68 177.366 203.863 176.828 204.027 176.349L206.616 169.227H208.528L204.049 181H202.008ZM212.202 169.227V181H210.419V169.227H212.202ZM211.332 164.822C211.626 164.822 211.876 164.919 212.084 165.112C212.299 165.299 212.406 165.592 212.406 165.993C212.406 166.387 212.299 166.681 212.084 166.874C211.876 167.067 211.626 167.164 211.332 167.164C211.024 167.164 210.766 167.067 210.559 166.874C210.358 166.681 210.258 166.387 210.258 165.993C210.258 165.592 210.358 165.299 210.559 165.112C210.766 164.919 211.024 164.822 211.332 164.822ZM220.699 181.215C219.639 181.215 218.705 180.996 217.896 180.56C217.086 180.123 216.456 179.457 216.005 178.562C215.554 177.666 215.328 176.538 215.328 175.178C215.328 173.753 215.564 172.589 216.037 171.687C216.517 170.777 217.176 170.104 218.014 169.667C218.852 169.23 219.804 169.012 220.871 169.012C221.458 169.012 222.024 169.073 222.568 169.194C223.12 169.309 223.571 169.456 223.922 169.635L223.385 171.128C223.027 170.985 222.611 170.856 222.139 170.741C221.673 170.627 221.236 170.569 220.828 170.569C220.012 170.569 219.331 170.745 218.787 171.096C218.25 171.447 217.845 171.962 217.573 172.643C217.308 173.323 217.176 174.161 217.176 175.156C217.176 176.109 217.305 176.922 217.562 177.595C217.827 178.268 218.218 178.784 218.733 179.142C219.256 179.493 219.908 179.668 220.688 179.668C221.312 179.668 221.874 179.604 222.375 179.475C222.876 179.339 223.331 179.181 223.739 179.002V180.592C223.345 180.792 222.905 180.946 222.418 181.054C221.938 181.161 221.365 181.215 220.699 181.215ZM231.065 169.012C232.068 169.012 232.927 169.234 233.644 169.678C234.36 170.122 234.908 170.745 235.287 171.547C235.667 172.342 235.856 173.273 235.856 174.34V175.446H227.725C227.746 176.828 228.09 177.881 228.756 178.604C229.422 179.328 230.36 179.689 231.57 179.689C232.315 179.689 232.974 179.621 233.547 179.485C234.12 179.349 234.714 179.149 235.33 178.884V180.452C234.736 180.717 234.145 180.91 233.558 181.032C232.978 181.154 232.29 181.215 231.495 181.215C230.364 181.215 229.375 180.986 228.53 180.527C227.692 180.062 227.041 179.382 226.575 178.486C226.11 177.591 225.877 176.495 225.877 175.199C225.877 173.932 226.088 172.836 226.511 171.912C226.94 170.981 227.542 170.265 228.315 169.764C229.096 169.262 230.013 169.012 231.065 169.012ZM231.044 170.473C230.091 170.473 229.332 170.784 228.767 171.407C228.201 172.03 227.864 172.9 227.757 174.018H233.987C233.98 173.316 233.869 172.7 233.654 172.17C233.447 171.633 233.128 171.217 232.698 170.924C232.269 170.623 231.717 170.473 231.044 170.473Z" fill="black"/>
<path d="M160.125 153C155.175 153 150.958 151.417 147.475 148.25C143.992 145.083 142.25 141.25 142.25 136.75V135.312C138.308 134.729 135.031 133.052 132.419 130.281C129.806 127.51 128.5 124.25 128.5 120.5V105.5H136.75V103H142.25V113H136.75V110.5H134V120.5C134 123.25 135.077 125.604 137.231 127.562C139.385 129.521 141.975 130.5 145 130.5C148.025 130.5 150.615 129.521 152.769 127.562C154.923 125.604 156 123.25 156 120.5V110.5H153.25V113H147.75V103H153.25V105.5H161.5V120.5C161.5 124.25 160.194 127.51 157.581 130.281C154.969 133.052 151.692 134.729 147.75 135.312V136.75C147.75 139.875 148.953 142.531 151.359 144.719C153.766 146.906 156.688 148 160.125 148C163.563 148 166.484 146.906 168.891 144.719C171.297 142.531 172.5 139.875 172.5 136.75V132.562C170.896 132.062 169.578 131.167 168.547 129.875C167.516 128.583 167 127.125 167 125.5C167 123.417 167.802 121.646 169.406 120.188C171.01 118.729 172.958 118 175.25 118C177.542 118 179.49 118.729 181.094 120.188C182.698 121.646 183.5 123.417 183.5 125.5C183.5 127.125 182.984 128.583 181.953 129.875C180.922 131.167 179.604 132.062 178 132.562V136.75C178 141.25 176.258 145.083 172.775 148.25C169.292 151.417 165.075 153 160.125 153ZM175.25 128C176.029 128 176.682 127.76 177.209 127.281C177.736 126.802 178 126.208 178 125.5C178 124.792 177.736 124.198 177.209 123.719C176.682 123.24 176.029 123 175.25 123C174.471 123 173.818 123.24 173.291 123.719C172.764 124.198 172.5 124.792 172.5 125.5C172.5 126.208 172.764 126.802 173.291 127.281C173.818 127.76 174.471 128 175.25 128Z" fill="black"/>
</svg>
