<svg width="325" height="300" viewBox="0 0 325 300" fill="none" xmlns="http://www.w3.org/2000/svg">
<path d="M0 0H325V300H0V0Z" fill="white"/>
<path d="M80.3281 169.295C81.6172 169.295 82.6807 169.456 83.5186 169.778C84.3636 170.093 84.9938 170.577 85.4092 171.229C85.8245 171.88 86.0322 172.711 86.0322 173.721C86.0322 174.551 85.8818 175.246 85.5811 175.805C85.2803 176.356 84.8864 176.804 84.3994 177.147C83.9124 177.491 83.3932 177.756 82.8418 177.942L87.1494 185H85.0225L81.1768 178.447H77.9111V185H76.085V169.295H80.3281ZM80.2207 170.874H77.9111V176.9H80.4033C81.6852 176.9 82.627 176.639 83.2285 176.116C83.8372 175.593 84.1416 174.824 84.1416 173.807C84.1416 172.74 83.8193 171.984 83.1748 171.54C82.5374 171.096 81.5527 170.874 80.2207 170.874ZM99.5459 179.092C99.5459 180.059 99.4206 180.922 99.1699 181.681C98.9193 182.44 98.5576 183.081 98.085 183.604C97.6123 184.126 97.0394 184.527 96.3662 184.807C95.7002 185.079 94.9447 185.215 94.0996 185.215C93.3118 185.215 92.5885 185.079 91.9297 184.807C91.278 184.527 90.7122 184.126 90.2324 183.604C89.7598 183.081 89.391 182.44 89.126 181.681C88.8682 180.922 88.7393 180.059 88.7393 179.092C88.7393 177.803 88.9577 176.707 89.3945 175.805C89.8314 174.895 90.4544 174.204 91.2637 173.731C92.0801 173.252 93.0505 173.012 94.1748 173.012C95.249 173.012 96.1872 173.252 96.9893 173.731C97.7985 174.211 98.4251 174.906 98.8691 175.815C99.3203 176.718 99.5459 177.81 99.5459 179.092ZM90.5869 179.092C90.5869 180.037 90.7122 180.857 90.9629 181.552C91.2135 182.246 91.6003 182.784 92.123 183.163C92.6458 183.543 93.319 183.732 94.1426 183.732C94.959 183.732 95.6286 183.543 96.1514 183.163C96.6813 182.784 97.0716 182.246 97.3223 181.552C97.5729 180.857 97.6982 180.037 97.6982 179.092C97.6982 178.154 97.5729 177.344 97.3223 176.664C97.0716 175.977 96.6849 175.447 96.1621 175.074C95.6393 174.702 94.9626 174.516 94.1318 174.516C92.9072 174.516 92.0085 174.92 91.4355 175.729C90.8698 176.539 90.5869 177.66 90.5869 179.092ZM112.78 179.092C112.78 180.059 112.655 180.922 112.404 181.681C112.154 182.44 111.792 183.081 111.319 183.604C110.847 184.126 110.274 184.527 109.601 184.807C108.935 185.079 108.179 185.215 107.334 185.215C106.546 185.215 105.823 185.079 105.164 184.807C104.512 184.527 103.947 184.126 103.467 183.604C102.994 183.081 102.625 182.44 102.36 181.681C102.103 180.922 101.974 180.059 101.974 179.092C101.974 177.803 102.192 176.707 102.629 175.805C103.066 174.895 103.689 174.204 104.498 173.731C105.314 173.252 106.285 173.012 107.409 173.012C108.483 173.012 109.422 173.252 110.224 173.731C111.033 174.211 111.66 174.906 112.104 175.815C112.555 176.718 112.78 177.81 112.78 179.092ZM103.821 179.092C103.821 180.037 103.947 180.857 104.197 181.552C104.448 182.246 104.835 182.784 105.357 183.163C105.88 183.543 106.553 183.732 107.377 183.732C108.193 183.732 108.863 183.543 109.386 183.163C109.916 182.784 110.306 182.246 110.557 181.552C110.807 180.857 110.933 180.037 110.933 179.092C110.933 178.154 110.807 177.344 110.557 176.664C110.306 175.977 109.919 175.447 109.396 175.074C108.874 174.702 108.197 174.516 107.366 174.516C106.142 174.516 105.243 174.92 104.67 175.729C104.104 176.539 103.821 177.66 103.821 179.092ZM128.646 173.012C129.943 173.012 130.92 173.352 131.579 174.032C132.238 174.705 132.567 175.79 132.567 177.287V185H130.806V177.373C130.806 176.421 130.598 175.708 130.183 175.235C129.774 174.756 129.166 174.516 128.356 174.516C127.218 174.516 126.391 174.845 125.875 175.504C125.359 176.163 125.102 177.133 125.102 178.415V185H123.329V177.373C123.329 176.736 123.236 176.206 123.05 175.783C122.871 175.361 122.599 175.046 122.233 174.838C121.875 174.623 121.421 174.516 120.869 174.516C120.089 174.516 119.462 174.677 118.989 174.999C118.517 175.321 118.173 175.801 117.958 176.438C117.75 177.069 117.646 177.846 117.646 178.77V185H115.863V173.227H117.303L117.571 174.892H117.668C117.904 174.483 118.201 174.14 118.56 173.86C118.918 173.581 119.319 173.37 119.763 173.227C120.207 173.083 120.679 173.012 121.181 173.012C122.076 173.012 122.824 173.18 123.426 173.517C124.035 173.846 124.475 174.351 124.747 175.031H124.844C125.23 174.351 125.76 173.846 126.434 173.517C127.107 173.18 127.844 173.012 128.646 173.012ZM151.076 180.821C151.076 181.752 150.843 182.547 150.378 183.206C149.92 183.858 149.275 184.355 148.444 184.699C147.614 185.043 146.636 185.215 145.512 185.215C144.917 185.215 144.355 185.186 143.825 185.129C143.295 185.072 142.808 184.989 142.364 184.882C141.92 184.774 141.53 184.642 141.193 184.484V182.733C141.73 182.955 142.386 183.163 143.159 183.356C143.933 183.543 144.742 183.636 145.587 183.636C146.375 183.636 147.041 183.532 147.585 183.324C148.129 183.109 148.541 182.805 148.82 182.411C149.107 182.01 149.25 181.53 149.25 180.972C149.25 180.435 149.132 179.987 148.896 179.629C148.659 179.264 148.265 178.934 147.714 178.641C147.17 178.34 146.425 178.021 145.479 177.685C144.813 177.448 144.226 177.19 143.718 176.911C143.209 176.625 142.783 176.302 142.439 175.944C142.096 175.586 141.834 175.171 141.655 174.698C141.483 174.226 141.397 173.685 141.397 173.076C141.397 172.238 141.609 171.522 142.031 170.928C142.461 170.326 143.052 169.868 143.804 169.553C144.563 169.23 145.433 169.069 146.414 169.069C147.252 169.069 148.025 169.148 148.734 169.306C149.451 169.463 150.106 169.674 150.7 169.939L150.131 171.508C149.565 171.271 148.964 171.075 148.326 170.917C147.696 170.759 147.044 170.681 146.371 170.681C145.698 170.681 145.129 170.781 144.663 170.981C144.205 171.175 143.854 171.451 143.61 171.809C143.367 172.167 143.245 172.593 143.245 173.087C143.245 173.638 143.36 174.097 143.589 174.462C143.825 174.827 144.198 175.153 144.706 175.439C145.222 175.719 145.902 176.012 146.747 176.32C147.671 176.657 148.455 177.015 149.1 177.395C149.744 177.767 150.235 178.225 150.571 178.77C150.908 179.307 151.076 179.991 151.076 180.821ZM158.735 185.215C157.675 185.215 156.741 184.996 155.932 184.56C155.122 184.123 154.492 183.457 154.041 182.562C153.59 181.666 153.364 180.538 153.364 179.178C153.364 177.753 153.601 176.589 154.073 175.687C154.553 174.777 155.212 174.104 156.05 173.667C156.888 173.23 157.84 173.012 158.907 173.012C159.494 173.012 160.06 173.073 160.604 173.194C161.156 173.309 161.607 173.456 161.958 173.635L161.421 175.128C161.063 174.985 160.647 174.856 160.175 174.741C159.709 174.627 159.272 174.569 158.864 174.569C158.048 174.569 157.368 174.745 156.823 175.096C156.286 175.447 155.882 175.962 155.609 176.643C155.344 177.323 155.212 178.161 155.212 179.156C155.212 180.109 155.341 180.922 155.599 181.595C155.864 182.268 156.254 182.784 156.77 183.142C157.292 183.493 157.944 183.668 158.725 183.668C159.348 183.668 159.91 183.604 160.411 183.475C160.912 183.339 161.367 183.181 161.775 183.002V184.592C161.382 184.792 160.941 184.946 160.454 185.054C159.974 185.161 159.401 185.215 158.735 185.215ZM166.352 168.285V173.28C166.352 173.567 166.344 173.857 166.33 174.15C166.316 174.437 166.291 174.702 166.255 174.945H166.373C166.617 174.53 166.924 174.183 167.297 173.903C167.676 173.617 168.106 173.402 168.586 173.259C169.066 173.108 169.574 173.033 170.111 173.033C171.057 173.033 171.844 173.184 172.475 173.484C173.112 173.785 173.588 174.251 173.903 174.881C174.226 175.511 174.387 176.327 174.387 177.33V185H172.625V177.448C172.625 176.467 172.399 175.733 171.948 175.246C171.504 174.759 170.82 174.516 169.896 174.516C169.023 174.516 168.325 174.684 167.802 175.021C167.286 175.35 166.914 175.837 166.685 176.481C166.463 177.126 166.352 177.914 166.352 178.845V185H164.568V168.285H166.352ZM182.594 173.012C183.596 173.012 184.456 173.234 185.172 173.678C185.888 174.122 186.436 174.745 186.815 175.547C187.195 176.342 187.385 177.273 187.385 178.34V179.446H179.253C179.274 180.828 179.618 181.881 180.284 182.604C180.95 183.328 181.888 183.689 183.099 183.689C183.843 183.689 184.502 183.621 185.075 183.485C185.648 183.349 186.243 183.149 186.858 182.884V184.452C186.264 184.717 185.673 184.91 185.086 185.032C184.506 185.154 183.818 185.215 183.023 185.215C181.892 185.215 180.904 184.986 180.059 184.527C179.221 184.062 178.569 183.382 178.104 182.486C177.638 181.591 177.405 180.495 177.405 179.199C177.405 177.932 177.617 176.836 178.039 175.912C178.469 174.981 179.07 174.265 179.844 173.764C180.624 173.262 181.541 173.012 182.594 173.012ZM182.572 174.473C181.62 174.473 180.861 174.784 180.295 175.407C179.729 176.03 179.393 176.9 179.285 178.018H185.516C185.508 177.316 185.397 176.7 185.183 176.17C184.975 175.633 184.656 175.217 184.227 174.924C183.797 174.623 183.245 174.473 182.572 174.473ZM194.604 185.215C193.114 185.215 191.932 184.706 191.059 183.689C190.192 182.673 189.759 181.161 189.759 179.156C189.759 177.13 190.203 175.601 191.091 174.569C191.979 173.531 193.16 173.012 194.636 173.012C195.259 173.012 195.803 173.094 196.269 173.259C196.734 173.424 197.135 173.646 197.472 173.925C197.808 174.197 198.091 174.508 198.32 174.859H198.449C198.421 174.637 198.392 174.333 198.363 173.946C198.335 173.56 198.32 173.244 198.32 173.001V168.285H200.104V185H198.664L198.396 183.324H198.32C198.098 183.675 197.815 183.994 197.472 184.28C197.135 184.567 196.73 184.796 196.258 184.968C195.792 185.132 195.241 185.215 194.604 185.215ZM194.883 183.732C196.143 183.732 197.035 183.374 197.558 182.658C198.08 181.942 198.342 180.879 198.342 179.468V179.146C198.342 177.649 198.091 176.499 197.59 175.697C197.096 174.895 196.193 174.494 194.883 174.494C193.787 174.494 192.967 174.917 192.423 175.762C191.879 176.6 191.606 177.745 191.606 179.199C191.606 180.646 191.875 181.763 192.412 182.551C192.956 183.339 193.78 183.732 194.883 183.732ZM213.606 173.227V185H212.146L211.888 183.346H211.791C211.548 183.754 211.232 184.098 210.846 184.377C210.459 184.656 210.022 184.864 209.535 185C209.055 185.143 208.543 185.215 207.999 185.215C207.068 185.215 206.287 185.064 205.657 184.764C205.027 184.463 204.551 183.997 204.229 183.367C203.913 182.737 203.756 181.928 203.756 180.939V173.227H205.561V180.811C205.561 181.792 205.783 182.526 206.227 183.013C206.671 183.493 207.347 183.732 208.257 183.732C209.131 183.732 209.825 183.568 210.341 183.238C210.864 182.909 211.24 182.425 211.469 181.788C211.698 181.144 211.812 180.356 211.812 179.425V173.227H213.606ZM219.171 185H217.377V168.285H219.171V185ZM224.725 173.227V185H222.941V173.227H224.725ZM223.854 168.822C224.148 168.822 224.399 168.919 224.606 169.112C224.821 169.299 224.929 169.592 224.929 169.993C224.929 170.387 224.821 170.681 224.606 170.874C224.399 171.067 224.148 171.164 223.854 171.164C223.547 171.164 223.289 171.067 223.081 170.874C222.881 170.681 222.78 170.387 222.78 169.993C222.78 169.592 222.881 169.299 223.081 169.112C223.289 168.919 223.547 168.822 223.854 168.822ZM234.081 173.012C235.478 173.012 236.534 173.355 237.25 174.043C237.966 174.723 238.324 175.819 238.324 177.33V185H236.562V177.448C236.562 176.467 236.337 175.733 235.886 175.246C235.442 174.759 234.758 174.516 233.834 174.516C232.531 174.516 231.614 174.884 231.084 175.622C230.554 176.36 230.289 177.43 230.289 178.834V185H228.506V173.227H229.945L230.214 174.924H230.311C230.561 174.508 230.88 174.161 231.267 173.882C231.653 173.595 232.087 173.381 232.566 173.237C233.046 173.087 233.551 173.012 234.081 173.012ZM245.285 190.285C243.738 190.285 242.546 189.995 241.708 189.415C240.87 188.842 240.451 188.036 240.451 186.998C240.451 186.26 240.684 185.63 241.149 185.107C241.622 184.585 242.274 184.237 243.104 184.065C242.797 183.922 242.532 183.707 242.31 183.421C242.095 183.134 241.987 182.805 241.987 182.433C241.987 182.003 242.105 181.627 242.342 181.305C242.585 180.975 242.954 180.66 243.448 180.359C242.832 180.109 242.331 179.686 241.944 179.092C241.565 178.49 241.375 177.792 241.375 176.997C241.375 176.152 241.55 175.432 241.901 174.838C242.252 174.236 242.761 173.778 243.427 173.463C244.093 173.148 244.898 172.99 245.844 172.99C246.051 172.99 246.259 173.001 246.467 173.022C246.682 173.037 246.886 173.062 247.079 173.098C247.272 173.126 247.441 173.162 247.584 173.205H251.623V174.354L249.453 174.623C249.668 174.902 249.847 175.239 249.99 175.633C250.133 176.027 250.205 176.464 250.205 176.943C250.205 178.118 249.808 179.052 249.013 179.747C248.218 180.435 247.126 180.778 245.736 180.778C245.407 180.778 245.07 180.75 244.727 180.692C244.376 180.886 244.107 181.101 243.921 181.337C243.742 181.573 243.652 181.845 243.652 182.153C243.652 182.382 243.72 182.565 243.856 182.701C244 182.837 244.204 182.938 244.469 183.002C244.734 183.059 245.052 183.088 245.425 183.088H247.498C248.78 183.088 249.761 183.356 250.441 183.894C251.129 184.431 251.473 185.215 251.473 186.246C251.473 187.549 250.943 188.549 249.883 189.243C248.823 189.938 247.29 190.285 245.285 190.285ZM245.339 188.889C246.313 188.889 247.118 188.788 247.756 188.588C248.4 188.395 248.88 188.112 249.195 187.739C249.518 187.374 249.679 186.937 249.679 186.429C249.679 185.956 249.571 185.598 249.356 185.354C249.142 185.118 248.826 184.961 248.411 184.882C247.996 184.796 247.487 184.753 246.886 184.753H244.845C244.315 184.753 243.853 184.835 243.459 185C243.065 185.165 242.761 185.408 242.546 185.73C242.338 186.053 242.234 186.454 242.234 186.934C242.234 187.571 242.503 188.054 243.04 188.384C243.577 188.72 244.343 188.889 245.339 188.889ZM245.801 179.479C246.653 179.479 247.294 179.264 247.724 178.834C248.153 178.404 248.368 177.778 248.368 176.954C248.368 176.073 248.15 175.414 247.713 174.978C247.276 174.534 246.632 174.312 245.779 174.312C244.963 174.312 244.333 174.541 243.889 174.999C243.452 175.45 243.233 176.113 243.233 176.986C243.233 177.788 243.455 178.404 243.899 178.834C244.343 179.264 244.977 179.479 245.801 179.479Z" fill="black"/>
<path d="M143.5 153C141.988 153 140.693 152.51 139.616 151.531C138.539 150.552 138 149.375 138 148V113C138 111.625 138.539 110.448 139.616 109.469C140.693 108.49 141.988 108 143.5 108H146.25V103H151.75V108H173.75V103H179.25V108H182C183.513 108 184.807 108.49 185.884 109.469C186.961 110.448 187.5 111.625 187.5 113V148C187.5 149.375 186.961 150.552 185.884 151.531C184.807 152.51 183.513 153 182 153H143.5ZM143.5 148H182V123H143.5V148ZM143.5 118H182V113H143.5V118ZM162.75 133C161.971 133 161.318 132.76 160.791 132.281C160.264 131.802 160 131.208 160 130.5C160 129.792 160.264 129.198 160.791 128.719C161.318 128.24 161.971 128 162.75 128C163.529 128 164.182 128.24 164.709 128.719C165.236 129.198 165.5 129.792 165.5 130.5C165.5 131.208 165.236 131.802 164.709 132.281C164.182 132.76 163.529 133 162.75 133ZM151.75 133C150.971 133 150.318 132.76 149.791 132.281C149.264 131.802 149 131.208 149 130.5C149 129.792 149.264 129.198 149.791 128.719C150.318 128.24 150.971 128 151.75 128C152.529 128 153.182 128.24 153.709 128.719C154.236 129.198 154.5 129.792 154.5 130.5C154.5 131.208 154.236 131.802 153.709 132.281C153.182 132.76 152.529 133 151.75 133ZM173.75 133C172.971 133 172.318 132.76 171.791 132.281C171.264 131.802 171 131.208 171 130.5C171 129.792 171.264 129.198 171.791 128.719C172.318 128.24 172.971 128 173.75 128C174.529 128 175.182 128.24 175.709 128.719C176.236 129.198 176.5 129.792 176.5 130.5C176.5 131.208 176.236 131.802 175.709 132.281C175.182 132.76 174.529 133 173.75 133ZM162.75 143C161.971 143 161.318 142.76 160.791 142.281C160.264 141.802 160 141.208 160 140.5C160 139.792 160.264 139.198 160.791 138.719C161.318 138.24 161.971 138 162.75 138C163.529 138 164.182 138.24 164.709 138.719C165.236 139.198 165.5 139.792 165.5 140.5C165.5 141.208 165.236 141.802 164.709 142.281C164.182 142.76 163.529 143 162.75 143ZM151.75 143C150.971 143 150.318 142.76 149.791 142.281C149.264 141.802 149 141.208 149 140.5C149 139.792 149.264 139.198 149.791 138.719C150.318 138.24 150.971 138 151.75 138C152.529 138 153.182 138.24 153.709 138.719C154.236 139.198 154.5 139.792 154.5 140.5C154.5 141.208 154.236 141.802 153.709 142.281C153.182 142.76 152.529 143 151.75 143ZM173.75 143C172.971 143 172.318 142.76 171.791 142.281C171.264 141.802 171 141.208 171 140.5C171 139.792 171.264 139.198 171.791 138.719C172.318 138.24 172.971 138 173.75 138C174.529 138 175.182 138.24 175.709 138.719C176.236 139.198 176.5 139.792 176.5 140.5C176.5 141.208 176.236 141.802 175.709 142.281C175.182 142.76 174.529 143 173.75 143Z" fill="black"/>
</svg>
