<svg width="325" height="300" viewBox="0 0 325 300" fill="none" xmlns="http://www.w3.org/2000/svg">
<path d="M0 0H325V300H0V0Z" fill="white"/>
<path d="M77.1855 180.821C77.1855 181.752 76.9528 182.547 76.4873 183.206C76.029 183.858 75.3844 184.355 74.5537 184.699C73.723 185.043 72.7454 185.215 71.6211 185.215C71.0267 185.215 70.4645 185.186 69.9346 185.129C69.4046 185.072 68.9176 184.989 68.4736 184.882C68.0296 184.774 67.6393 184.642 67.3027 184.484V182.733C67.8398 182.955 68.4951 183.163 69.2686 183.356C70.042 183.543 70.8512 183.636 71.6963 183.636C72.484 183.636 73.1501 183.532 73.6943 183.324C74.2386 183.109 74.6504 182.805 74.9297 182.411C75.2161 182.01 75.3594 181.53 75.3594 180.972C75.3594 180.435 75.2412 179.987 75.0049 179.629C74.7686 179.264 74.3747 178.934 73.8232 178.641C73.279 178.34 72.5342 178.021 71.5889 177.685C70.9229 177.448 70.3356 177.19 69.8271 176.911C69.3187 176.625 68.8926 176.302 68.5488 175.944C68.2051 175.586 67.9437 175.171 67.7646 174.698C67.5928 174.226 67.5068 173.685 67.5068 173.076C67.5068 172.238 67.7181 171.522 68.1406 170.928C68.5703 170.326 69.1611 169.868 69.9131 169.553C70.6722 169.23 71.5423 169.069 72.5234 169.069C73.3613 169.069 74.1348 169.148 74.8438 169.306C75.5599 169.463 76.2152 169.674 76.8096 169.939L76.2402 171.508C75.6745 171.271 75.0729 171.075 74.4355 170.917C73.8053 170.759 73.1536 170.681 72.4805 170.681C71.8073 170.681 71.238 170.781 70.7725 170.981C70.3141 171.175 69.9632 171.451 69.7197 171.809C69.4762 172.167 69.3545 172.593 69.3545 173.087C69.3545 173.638 69.4691 174.097 69.6982 174.462C69.9346 174.827 70.307 175.153 70.8154 175.439C71.3311 175.719 72.0114 176.012 72.8564 176.32C73.7803 176.657 74.5645 177.015 75.209 177.395C75.8535 177.767 76.3441 178.225 76.6807 178.77C77.0173 179.307 77.1855 179.991 77.1855 180.821ZM84.5332 173.033C85.9368 173.033 86.9788 173.348 87.6592 173.979C88.3395 174.609 88.6797 175.615 88.6797 176.997V185H87.3799L87.0361 183.26H86.9502C86.6208 183.689 86.277 184.051 85.9189 184.345C85.5609 184.631 85.1455 184.85 84.6729 185C84.2074 185.143 83.6344 185.215 82.9541 185.215C82.238 185.215 81.6006 185.09 81.042 184.839C80.4906 184.588 80.0537 184.209 79.7314 183.7C79.4163 183.192 79.2588 182.547 79.2588 181.767C79.2588 180.592 79.7243 179.69 80.6553 179.06C81.5863 178.429 83.0042 178.086 84.9092 178.028L86.9395 177.942V177.223C86.9395 176.206 86.721 175.493 86.2842 175.085C85.8473 174.677 85.2314 174.473 84.4365 174.473C83.8206 174.473 83.2334 174.562 82.6748 174.741C82.1162 174.92 81.5863 175.132 81.085 175.375L80.5371 174.021C81.0671 173.749 81.6758 173.517 82.3633 173.323C83.0508 173.13 83.7741 173.033 84.5332 173.033ZM86.918 179.199L85.124 179.274C83.6559 179.332 82.6211 179.572 82.0195 179.994C81.418 180.417 81.1172 181.015 81.1172 181.788C81.1172 182.461 81.3213 182.959 81.7295 183.281C82.1377 183.604 82.6784 183.765 83.3516 183.765C84.3971 183.765 85.2529 183.475 85.9189 182.895C86.585 182.314 86.918 181.444 86.918 180.284V179.199ZM97.9287 173.012C99.3252 173.012 100.382 173.355 101.098 174.043C101.814 174.723 102.172 175.819 102.172 177.33V185H100.41V177.448C100.41 176.467 100.185 175.733 99.7334 175.246C99.2894 174.759 98.6055 174.516 97.6816 174.516C96.3783 174.516 95.4616 174.884 94.9316 175.622C94.4017 176.36 94.1367 177.43 94.1367 178.834V185H92.3535V173.227H93.793L94.0615 174.924H94.1582C94.4089 174.508 94.7275 174.161 95.1143 173.882C95.501 173.595 95.9342 173.381 96.4141 173.237C96.8939 173.087 97.3988 173.012 97.9287 173.012ZM107.629 173.227V185H105.846V173.227H107.629ZM106.759 168.822C107.052 168.822 107.303 168.919 107.511 169.112C107.726 169.299 107.833 169.592 107.833 169.993C107.833 170.387 107.726 170.681 107.511 170.874C107.303 171.067 107.052 171.164 106.759 171.164C106.451 171.164 106.193 171.067 105.985 170.874C105.785 170.681 105.685 170.387 105.685 169.993C105.685 169.592 105.785 169.299 105.985 169.112C106.193 168.919 106.451 168.822 106.759 168.822ZM115.213 183.754C115.507 183.754 115.807 183.729 116.115 183.679C116.423 183.629 116.674 183.568 116.867 183.496V184.882C116.66 184.975 116.369 185.054 115.997 185.118C115.632 185.183 115.274 185.215 114.923 185.215C114.3 185.215 113.734 185.107 113.226 184.893C112.717 184.671 112.309 184.298 112.001 183.775C111.7 183.253 111.55 182.529 111.55 181.605V174.623H109.874V173.753L111.561 173.055L112.27 170.498H113.344V173.227H116.792V174.623H113.344V181.552C113.344 182.289 113.512 182.841 113.849 183.206C114.192 183.571 114.647 183.754 115.213 183.754ZM123.656 173.033C125.06 173.033 126.102 173.348 126.782 173.979C127.463 174.609 127.803 175.615 127.803 176.997V185H126.503L126.159 183.26H126.073C125.744 183.689 125.4 184.051 125.042 184.345C124.684 184.631 124.269 184.85 123.796 185C123.33 185.143 122.757 185.215 122.077 185.215C121.361 185.215 120.724 185.09 120.165 184.839C119.614 184.588 119.177 184.209 118.854 183.7C118.539 183.192 118.382 182.547 118.382 181.767C118.382 180.592 118.847 179.69 119.778 179.06C120.709 178.429 122.127 178.086 124.032 178.028L126.062 177.942V177.223C126.062 176.206 125.844 175.493 125.407 175.085C124.97 174.677 124.354 174.473 123.56 174.473C122.944 174.473 122.356 174.562 121.798 174.741C121.239 174.92 120.709 175.132 120.208 175.375L119.66 174.021C120.19 173.749 120.799 173.517 121.486 173.323C122.174 173.13 122.897 173.033 123.656 173.033ZM126.041 179.199L124.247 179.274C122.779 179.332 121.744 179.572 121.143 179.994C120.541 180.417 120.24 181.015 120.24 181.788C120.24 182.461 120.444 182.959 120.853 183.281C121.261 183.604 121.801 183.765 122.475 183.765C123.52 183.765 124.376 183.475 125.042 182.895C125.708 182.314 126.041 181.444 126.041 180.284V179.199ZM135.279 183.754C135.573 183.754 135.874 183.729 136.182 183.679C136.49 183.629 136.74 183.568 136.934 183.496V184.882C136.726 184.975 136.436 185.054 136.063 185.118C135.698 185.183 135.34 185.215 134.989 185.215C134.366 185.215 133.8 185.107 133.292 184.893C132.784 184.671 132.375 184.298 132.067 183.775C131.767 183.253 131.616 182.529 131.616 181.605V174.623H129.94V173.753L131.627 173.055L132.336 170.498H133.41V173.227H136.858V174.623H133.41V181.552C133.41 182.289 133.578 182.841 133.915 183.206C134.259 183.571 134.714 183.754 135.279 183.754ZM141.102 173.227V185H139.318V173.227H141.102ZM140.231 168.822C140.525 168.822 140.776 168.919 140.983 169.112C141.198 169.299 141.306 169.592 141.306 169.993C141.306 170.387 141.198 170.681 140.983 170.874C140.776 171.067 140.525 171.164 140.231 171.164C139.924 171.164 139.666 171.067 139.458 170.874C139.257 170.681 139.157 170.387 139.157 169.993C139.157 169.592 139.257 169.299 139.458 169.112C139.666 168.919 139.924 168.822 140.231 168.822ZM155.034 179.092C155.034 180.059 154.909 180.922 154.658 181.681C154.408 182.44 154.046 183.081 153.573 183.604C153.101 184.126 152.528 184.527 151.854 184.807C151.188 185.079 150.433 185.215 149.588 185.215C148.8 185.215 148.077 185.079 147.418 184.807C146.766 184.527 146.201 184.126 145.721 183.604C145.248 183.081 144.879 182.44 144.614 181.681C144.356 180.922 144.228 180.059 144.228 179.092C144.228 177.803 144.446 176.707 144.883 175.805C145.32 174.895 145.943 174.204 146.752 173.731C147.568 173.252 148.539 173.012 149.663 173.012C150.737 173.012 151.675 173.252 152.478 173.731C153.287 174.211 153.913 174.906 154.357 175.815C154.809 176.718 155.034 177.81 155.034 179.092ZM146.075 179.092C146.075 180.037 146.201 180.857 146.451 181.552C146.702 182.246 147.089 182.784 147.611 183.163C148.134 183.543 148.807 183.732 149.631 183.732C150.447 183.732 151.117 183.543 151.64 183.163C152.17 182.784 152.56 182.246 152.811 181.552C153.061 180.857 153.187 180.037 153.187 179.092C153.187 178.154 153.061 177.344 152.811 176.664C152.56 175.977 152.173 175.447 151.65 175.074C151.128 174.702 150.451 174.516 149.62 174.516C148.396 174.516 147.497 174.92 146.924 175.729C146.358 176.539 146.075 177.66 146.075 179.092ZM163.692 173.012C165.089 173.012 166.145 173.355 166.861 174.043C167.577 174.723 167.936 175.819 167.936 177.33V185H166.174V177.448C166.174 176.467 165.948 175.733 165.497 175.246C165.053 174.759 164.369 174.516 163.445 174.516C162.142 174.516 161.225 174.884 160.695 175.622C160.165 176.36 159.9 177.43 159.9 178.834V185H158.117V173.227H159.557L159.825 174.924H159.922C160.173 174.508 160.491 174.161 160.878 173.882C161.265 173.595 161.698 173.381 162.178 173.237C162.658 173.087 163.162 173.012 163.692 173.012ZM186.455 180.821C186.455 181.752 186.222 182.547 185.757 183.206C185.299 183.858 184.654 184.355 183.823 184.699C182.993 185.043 182.015 185.215 180.891 185.215C180.296 185.215 179.734 185.186 179.204 185.129C178.674 185.072 178.187 184.989 177.743 184.882C177.299 184.774 176.909 184.642 176.572 184.484V182.733C177.109 182.955 177.765 183.163 178.538 183.356C179.312 183.543 180.121 183.636 180.966 183.636C181.754 183.636 182.42 183.532 182.964 183.324C183.508 183.109 183.92 182.805 184.199 182.411C184.486 182.01 184.629 181.53 184.629 180.972C184.629 180.435 184.511 179.987 184.274 179.629C184.038 179.264 183.644 178.934 183.093 178.641C182.549 178.34 181.804 178.021 180.858 177.685C180.192 177.448 179.605 177.19 179.097 176.911C178.588 176.625 178.162 176.302 177.818 175.944C177.475 175.586 177.213 175.171 177.034 174.698C176.862 174.226 176.776 173.685 176.776 173.076C176.776 172.238 176.988 171.522 177.41 170.928C177.84 170.326 178.431 169.868 179.183 169.553C179.942 169.23 180.812 169.069 181.793 169.069C182.631 169.069 183.404 169.148 184.113 169.306C184.829 169.463 185.485 169.674 186.079 169.939L185.51 171.508C184.944 171.271 184.342 171.075 183.705 170.917C183.075 170.759 182.423 170.681 181.75 170.681C181.077 170.681 180.507 170.781 180.042 170.981C179.584 171.175 179.233 171.451 178.989 171.809C178.746 172.167 178.624 172.593 178.624 173.087C178.624 173.638 178.739 174.097 178.968 174.462C179.204 174.827 179.576 175.153 180.085 175.439C180.601 175.719 181.281 176.012 182.126 176.32C183.05 176.657 183.834 177.015 184.479 177.395C185.123 177.767 185.614 178.225 185.95 178.77C186.287 179.307 186.455 179.991 186.455 180.821ZM193.932 173.012C194.934 173.012 195.794 173.234 196.51 173.678C197.226 174.122 197.774 174.745 198.153 175.547C198.533 176.342 198.723 177.273 198.723 178.34V179.446H190.591C190.612 180.828 190.956 181.881 191.622 182.604C192.288 183.328 193.226 183.689 194.437 183.689C195.181 183.689 195.84 183.621 196.413 183.485C196.986 183.349 197.58 183.149 198.196 182.884V184.452C197.602 184.717 197.011 184.91 196.424 185.032C195.844 185.154 195.156 185.215 194.361 185.215C193.23 185.215 192.242 184.986 191.396 184.527C190.559 184.062 189.907 183.382 189.441 182.486C188.976 181.591 188.743 180.495 188.743 179.199C188.743 177.932 188.954 176.836 189.377 175.912C189.807 174.981 190.408 174.265 191.182 173.764C191.962 173.262 192.879 173.012 193.932 173.012ZM193.91 174.473C192.958 174.473 192.199 174.784 191.633 175.407C191.067 176.03 190.73 176.9 190.623 178.018H196.854C196.846 177.316 196.735 176.7 196.521 176.17C196.313 175.633 195.994 175.217 195.564 174.924C195.135 174.623 194.583 174.473 193.91 174.473ZM207.102 173.012C207.338 173.012 207.585 173.026 207.843 173.055C208.101 173.076 208.33 173.108 208.53 173.151L208.305 174.806C208.111 174.756 207.896 174.716 207.66 174.688C207.424 174.659 207.202 174.645 206.994 174.645C206.521 174.645 206.074 174.741 205.651 174.935C205.236 175.121 204.871 175.393 204.556 175.751C204.241 176.102 203.993 176.528 203.814 177.029C203.635 177.523 203.546 178.075 203.546 178.684V185H201.752V173.227H203.234L203.428 175.396H203.503C203.746 174.96 204.04 174.562 204.384 174.204C204.728 173.839 205.125 173.549 205.576 173.334C206.035 173.119 206.543 173.012 207.102 173.012ZM213.343 185L208.874 173.227H210.786L213.375 180.349C213.554 180.836 213.737 181.373 213.923 181.96C214.109 182.547 214.238 183.02 214.31 183.378H214.385C214.471 183.02 214.614 182.547 214.814 181.96C215.015 181.366 215.198 180.828 215.362 180.349L217.951 173.227H219.863L215.384 185H213.343ZM223.537 173.227V185H221.754V173.227H223.537ZM222.667 168.822C222.961 168.822 223.211 168.919 223.419 169.112C223.634 169.299 223.741 169.592 223.741 169.993C223.741 170.387 223.634 170.681 223.419 170.874C223.211 171.067 222.961 171.164 222.667 171.164C222.359 171.164 222.101 171.067 221.894 170.874C221.693 170.681 221.593 170.387 221.593 169.993C221.593 169.592 221.693 169.299 221.894 169.112C222.101 168.919 222.359 168.822 222.667 168.822ZM232.034 185.215C230.974 185.215 230.04 184.996 229.23 184.56C228.421 184.123 227.791 183.457 227.34 182.562C226.889 181.666 226.663 180.538 226.663 179.178C226.663 177.753 226.899 176.589 227.372 175.687C227.852 174.777 228.511 174.104 229.349 173.667C230.187 173.23 231.139 173.012 232.206 173.012C232.793 173.012 233.359 173.073 233.903 173.194C234.455 173.309 234.906 173.456 235.257 173.635L234.72 175.128C234.362 174.985 233.946 174.856 233.474 174.741C233.008 174.627 232.571 174.569 232.163 174.569C231.347 174.569 230.666 174.745 230.122 175.096C229.585 175.447 229.18 175.962 228.908 176.643C228.643 177.323 228.511 178.161 228.511 179.156C228.511 180.109 228.64 180.922 228.897 181.595C229.162 182.268 229.553 182.784 230.068 183.142C230.591 183.493 231.243 183.668 232.023 183.668C232.646 183.668 233.209 183.604 233.71 183.475C234.211 183.339 234.666 183.181 235.074 183.002V184.592C234.68 184.792 234.24 184.946 233.753 185.054C233.273 185.161 232.7 185.215 232.034 185.215ZM242.4 173.012C243.403 173.012 244.262 173.234 244.979 173.678C245.695 174.122 246.243 174.745 246.622 175.547C247.002 176.342 247.191 177.273 247.191 178.34V179.446H239.06C239.081 180.828 239.425 181.881 240.091 182.604C240.757 183.328 241.695 183.689 242.905 183.689C243.65 183.689 244.309 183.621 244.882 183.485C245.455 183.349 246.049 183.149 246.665 182.884V184.452C246.071 184.717 245.48 184.91 244.893 185.032C244.312 185.154 243.625 185.215 242.83 185.215C241.699 185.215 240.71 184.986 239.865 184.527C239.027 184.062 238.376 183.382 237.91 182.486C237.445 181.591 237.212 180.495 237.212 179.199C237.212 177.932 237.423 176.836 237.846 175.912C238.275 174.981 238.877 174.265 239.65 173.764C240.431 173.262 241.348 173.012 242.4 173.012ZM242.379 174.473C241.426 174.473 240.667 174.784 240.102 175.407C239.536 176.03 239.199 176.9 239.092 178.018H245.322C245.315 177.316 245.204 176.7 244.989 176.17C244.782 175.633 244.463 175.217 244.033 174.924C243.604 174.623 243.052 174.473 242.379 174.473ZM257.837 181.777C257.837 182.529 257.647 183.163 257.268 183.679C256.895 184.187 256.358 184.57 255.656 184.828C254.962 185.086 254.131 185.215 253.164 185.215C252.34 185.215 251.628 185.15 251.026 185.021C250.425 184.893 249.898 184.71 249.447 184.474V182.83C249.927 183.066 250.5 183.281 251.166 183.475C251.832 183.668 252.512 183.765 253.207 183.765C254.224 183.765 254.962 183.6 255.42 183.271C255.878 182.941 256.107 182.493 256.107 181.928C256.107 181.605 256.014 181.323 255.828 181.079C255.649 180.828 255.345 180.589 254.915 180.359C254.485 180.123 253.891 179.865 253.132 179.586C252.38 179.299 251.728 179.017 251.177 178.737C250.632 178.451 250.21 178.104 249.909 177.695C249.616 177.287 249.469 176.757 249.469 176.105C249.469 175.11 249.87 174.347 250.672 173.817C251.481 173.28 252.541 173.012 253.852 173.012C254.561 173.012 255.223 173.083 255.839 173.227C256.462 173.363 257.042 173.549 257.579 173.785L256.978 175.214C256.491 175.006 255.971 174.831 255.42 174.688C254.868 174.544 254.306 174.473 253.733 174.473C252.91 174.473 252.276 174.609 251.832 174.881C251.395 175.153 251.177 175.525 251.177 175.998C251.177 176.363 251.277 176.664 251.478 176.9C251.685 177.137 252.015 177.359 252.466 177.566C252.917 177.774 253.511 178.018 254.249 178.297C254.987 178.569 255.624 178.852 256.161 179.146C256.698 179.432 257.11 179.783 257.396 180.198C257.69 180.606 257.837 181.133 257.837 181.777Z" fill="black"/>
<path d="M150.25 144.25L169.363 149L185.725 144.375C185.496 144 185.164 143.677 184.728 143.406C184.293 143.135 183.8 143 183.25 143H169.363C168.125 143 167.14 142.958 166.406 142.875C165.673 142.792 164.917 142.625 164.138 142.375L157.744 140.438L159.256 135.562L164.825 137.25C165.604 137.458 166.521 137.625 167.575 137.75C168.629 137.875 170.188 137.958 172.25 138C172.25 137.542 172.101 137.104 171.803 136.688C171.505 136.271 171.15 136 170.738 135.875L154.65 130.5H150.25V144.25ZM133.75 153V125.5H154.65C154.971 125.5 155.292 125.531 155.613 125.594C155.933 125.656 156.231 125.729 156.506 125.812L172.663 131.25C174.175 131.75 175.401 132.625 176.341 133.875C177.28 135.125 177.75 136.5 177.75 138H183.25C185.542 138 187.49 138.688 189.094 140.062C190.698 141.438 191.5 143.25 191.5 145.5V148L169.5 154.25L150.25 149.375V153H133.75ZM139.25 148H144.75V130.5H139.25V148ZM172.25 127.125L166.75 125.25C166.658 123.25 165.822 121.542 164.241 120.125C162.659 118.708 160.746 118 158.5 118C156.988 118 155.601 118.344 154.341 119.031C153.08 119.719 152.083 120.625 151.35 121.75H145.438C146.217 119.625 147.511 117.792 149.322 116.25C151.132 114.708 153.275 113.708 155.75 113.25V108H151.625V103H166.75C168.308 103 169.775 103.229 171.15 103.688C172.525 104.146 173.785 104.771 174.931 105.562L171.013 109.125C170.371 108.792 169.695 108.521 168.984 108.312C168.274 108.104 167.529 108 166.75 108H161.25V113.25C164.413 113.833 167.036 115.26 169.122 117.531C171.207 119.802 172.25 122.458 172.25 125.5V127.125ZM183.25 123C181.738 123 180.443 122.51 179.366 121.531C178.289 120.552 177.75 119.375 177.75 118C177.75 117.042 178.14 115.854 178.919 114.438C179.698 113.021 181.142 110.875 183.25 108C185.358 110.875 186.802 113.021 187.581 114.438C188.36 115.854 188.75 117.042 188.75 118C188.75 119.375 188.211 120.552 187.134 121.531C186.057 122.51 184.763 123 183.25 123Z" fill="black"/>
</svg>
