<svg width="325" height="300" viewBox="0 0 325 300" fill="none" xmlns="http://www.w3.org/2000/svg">
<path d="M0 0H325V300H0V0Z" fill="#FAFBFC"/>
<path d="M91.0137 176.821C91.0137 177.752 90.7809 178.547 90.3154 179.206C89.8571 179.858 89.2126 180.355 88.3818 180.699C87.5511 181.043 86.5736 181.215 85.4492 181.215C84.8548 181.215 84.2926 181.186 83.7627 181.129C83.2327 181.072 82.7458 180.989 82.3018 180.882C81.8577 180.774 81.4674 180.642 81.1309 180.484V178.733C81.668 178.955 82.3232 179.163 83.0967 179.356C83.8701 179.543 84.6794 179.636 85.5244 179.636C86.3122 179.636 86.9782 179.532 87.5225 179.324C88.0667 179.109 88.4785 178.805 88.7578 178.411C89.0443 178.01 89.1875 177.53 89.1875 176.972C89.1875 176.435 89.0693 175.987 88.833 175.629C88.5967 175.264 88.2028 174.934 87.6514 174.641C87.1071 174.34 86.3623 174.021 85.417 173.685C84.751 173.448 84.1637 173.19 83.6553 172.911C83.1468 172.625 82.7207 172.302 82.377 171.944C82.0332 171.586 81.7718 171.171 81.5928 170.698C81.4209 170.226 81.335 169.685 81.335 169.076C81.335 168.238 81.5462 167.522 81.9688 166.928C82.3984 166.326 82.9893 165.868 83.7412 165.553C84.5003 165.23 85.3704 165.069 86.3516 165.069C87.1895 165.069 87.9629 165.148 88.6719 165.306C89.388 165.463 90.0433 165.674 90.6377 165.939L90.0684 167.508C89.5026 167.271 88.901 167.075 88.2637 166.917C87.6335 166.759 86.9818 166.681 86.3086 166.681C85.6354 166.681 85.0661 166.781 84.6006 166.981C84.1423 167.175 83.7913 167.451 83.5479 167.809C83.3044 168.167 83.1826 168.593 83.1826 169.087C83.1826 169.638 83.2972 170.097 83.5264 170.462C83.7627 170.827 84.1351 171.153 84.6436 171.439C85.1592 171.719 85.8395 172.012 86.6846 172.32C87.6084 172.657 88.3926 173.015 89.0371 173.395C89.6816 173.767 90.1722 174.225 90.5088 174.77C90.8454 175.307 91.0137 175.991 91.0137 176.821ZM98.4902 169.012C99.4928 169.012 100.352 169.234 101.068 169.678C101.785 170.122 102.332 170.745 102.712 171.547C103.091 172.342 103.281 173.273 103.281 174.34V175.446H95.1494C95.1709 176.828 95.5146 177.881 96.1807 178.604C96.8467 179.328 97.7848 179.689 98.9951 179.689C99.7399 179.689 100.399 179.621 100.972 179.485C101.545 179.349 102.139 179.149 102.755 178.884V180.452C102.16 180.717 101.57 180.91 100.982 181.032C100.402 181.154 99.7148 181.215 98.9199 181.215C97.7884 181.215 96.8001 180.986 95.9551 180.527C95.1172 180.062 94.4655 179.382 94 178.486C93.5345 177.591 93.3018 176.495 93.3018 175.199C93.3018 173.932 93.513 172.836 93.9355 171.912C94.3652 170.981 94.9668 170.265 95.7402 169.764C96.5208 169.262 97.4375 169.012 98.4902 169.012ZM98.4688 170.473C97.5163 170.473 96.7572 170.784 96.1914 171.407C95.6257 172.03 95.2891 172.9 95.1816 174.018H101.412C101.405 173.316 101.294 172.7 101.079 172.17C100.871 171.633 100.553 171.217 100.123 170.924C99.6934 170.623 99.1419 170.473 98.4688 170.473ZM111.026 181.215C109.966 181.215 109.032 180.996 108.223 180.56C107.413 180.123 106.783 179.457 106.332 178.562C105.881 177.666 105.655 176.538 105.655 175.178C105.655 173.753 105.892 172.589 106.364 171.687C106.844 170.777 107.503 170.104 108.341 169.667C109.179 169.23 110.131 169.012 111.198 169.012C111.785 169.012 112.351 169.073 112.896 169.194C113.447 169.309 113.898 169.456 114.249 169.635L113.712 171.128C113.354 170.985 112.938 170.856 112.466 170.741C112 170.627 111.563 170.569 111.155 170.569C110.339 170.569 109.659 170.745 109.114 171.096C108.577 171.447 108.173 171.962 107.9 172.643C107.635 173.323 107.503 174.161 107.503 175.156C107.503 176.109 107.632 176.922 107.89 177.595C108.155 178.268 108.545 178.784 109.061 179.142C109.583 179.493 110.235 179.668 111.016 179.668C111.639 179.668 112.201 179.604 112.702 179.475C113.203 179.339 113.658 179.181 114.066 179.002V180.592C113.673 180.792 113.232 180.946 112.745 181.054C112.265 181.161 111.692 181.215 111.026 181.215ZM126.581 169.227V181H125.12L124.862 179.346H124.766C124.522 179.754 124.207 180.098 123.82 180.377C123.434 180.656 122.997 180.864 122.51 181C122.03 181.143 121.518 181.215 120.974 181.215C120.043 181.215 119.262 181.064 118.632 180.764C118.002 180.463 117.525 179.997 117.203 179.367C116.888 178.737 116.73 177.928 116.73 176.939V169.227H118.535V176.811C118.535 177.792 118.757 178.526 119.201 179.013C119.645 179.493 120.322 179.732 121.231 179.732C122.105 179.732 122.8 179.568 123.315 179.238C123.838 178.909 124.214 178.425 124.443 177.788C124.673 177.144 124.787 176.356 124.787 175.425V169.227H126.581ZM135.701 169.012C135.938 169.012 136.185 169.026 136.442 169.055C136.7 169.076 136.929 169.108 137.13 169.151L136.904 170.806C136.711 170.756 136.496 170.716 136.26 170.688C136.023 170.659 135.801 170.645 135.594 170.645C135.121 170.645 134.674 170.741 134.251 170.935C133.836 171.121 133.47 171.393 133.155 171.751C132.84 172.102 132.593 172.528 132.414 173.029C132.235 173.523 132.146 174.075 132.146 174.684V181H130.352V169.227H131.834L132.027 171.396H132.103C132.346 170.96 132.64 170.562 132.983 170.204C133.327 169.839 133.725 169.549 134.176 169.334C134.634 169.119 135.143 169.012 135.701 169.012ZM141.137 169.227V181H139.354V169.227H141.137ZM140.267 164.822C140.56 164.822 140.811 164.919 141.019 165.112C141.233 165.299 141.341 165.592 141.341 165.993C141.341 166.387 141.233 166.681 141.019 166.874C140.811 167.067 140.56 167.164 140.267 167.164C139.959 167.164 139.701 167.067 139.493 166.874C139.293 166.681 139.192 166.387 139.192 165.993C139.192 165.592 139.293 165.299 139.493 165.112C139.701 164.919 139.959 164.822 140.267 164.822ZM148.721 179.754C149.014 179.754 149.315 179.729 149.623 179.679C149.931 179.629 150.182 179.568 150.375 179.496V180.882C150.167 180.975 149.877 181.054 149.505 181.118C149.14 181.183 148.782 181.215 148.431 181.215C147.808 181.215 147.242 181.107 146.733 180.893C146.225 180.671 145.817 180.298 145.509 179.775C145.208 179.253 145.058 178.529 145.058 177.605V170.623H143.382V169.753L145.068 169.055L145.777 166.498H146.852V169.227H150.3V170.623H146.852V177.552C146.852 178.289 147.02 178.841 147.356 179.206C147.7 179.571 148.155 179.754 148.721 179.754ZM150.901 169.227H152.813L155.413 176.059C155.563 176.46 155.703 176.846 155.832 177.219C155.961 177.584 156.076 177.935 156.176 178.271C156.276 178.608 156.355 178.934 156.412 179.249H156.487C156.588 178.891 156.731 178.422 156.917 177.842C157.103 177.255 157.304 176.657 157.519 176.048L159.979 169.227H161.901L156.777 182.729C156.505 183.453 156.187 184.083 155.821 184.62C155.463 185.157 155.026 185.569 154.511 185.855C153.995 186.149 153.372 186.296 152.642 186.296C152.305 186.296 152.008 186.274 151.75 186.231C151.492 186.196 151.27 186.153 151.084 186.103V184.674C151.242 184.71 151.431 184.742 151.653 184.771C151.882 184.799 152.119 184.813 152.362 184.813C152.806 184.813 153.189 184.728 153.512 184.556C153.841 184.391 154.124 184.147 154.36 183.825C154.597 183.503 154.801 183.12 154.973 182.676L155.617 181.021L150.901 169.227ZM178.627 176.821C178.627 177.752 178.394 178.547 177.929 179.206C177.47 179.858 176.826 180.355 175.995 180.699C175.164 181.043 174.187 181.215 173.062 181.215C172.468 181.215 171.906 181.186 171.376 181.129C170.846 181.072 170.359 180.989 169.915 180.882C169.471 180.774 169.081 180.642 168.744 180.484V178.733C169.281 178.955 169.937 179.163 170.71 179.356C171.483 179.543 172.293 179.636 173.138 179.636C173.925 179.636 174.591 179.532 175.136 179.324C175.68 179.109 176.092 178.805 176.371 178.411C176.658 178.01 176.801 177.53 176.801 176.972C176.801 176.435 176.683 175.987 176.446 175.629C176.21 175.264 175.816 174.934 175.265 174.641C174.72 174.34 173.976 174.021 173.03 173.685C172.364 173.448 171.777 173.19 171.269 172.911C170.76 172.625 170.334 172.302 169.99 171.944C169.646 171.586 169.385 171.171 169.206 170.698C169.034 170.226 168.948 169.685 168.948 169.076C168.948 168.238 169.16 167.522 169.582 166.928C170.012 166.326 170.603 165.868 171.354 165.553C172.114 165.23 172.984 165.069 173.965 165.069C174.803 165.069 175.576 165.148 176.285 165.306C177.001 165.463 177.657 165.674 178.251 165.939L177.682 167.508C177.116 167.271 176.514 167.075 175.877 166.917C175.247 166.759 174.595 166.681 173.922 166.681C173.249 166.681 172.679 166.781 172.214 166.981C171.756 167.175 171.405 167.451 171.161 167.809C170.918 168.167 170.796 168.593 170.796 169.087C170.796 169.638 170.91 170.097 171.14 170.462C171.376 170.827 171.748 171.153 172.257 171.439C172.772 171.719 173.453 172.012 174.298 172.32C175.222 172.657 176.006 173.015 176.65 173.395C177.295 173.767 177.785 174.225 178.122 174.77C178.459 175.307 178.627 175.991 178.627 176.821ZM186.104 169.012C187.106 169.012 187.965 169.234 188.682 169.678C189.398 170.122 189.946 170.745 190.325 171.547C190.705 172.342 190.895 173.273 190.895 174.34V175.446H182.763C182.784 176.828 183.128 177.881 183.794 178.604C184.46 179.328 185.398 179.689 186.608 179.689C187.353 179.689 188.012 179.621 188.585 179.485C189.158 179.349 189.752 179.149 190.368 178.884V180.452C189.774 180.717 189.183 180.91 188.596 181.032C188.016 181.154 187.328 181.215 186.533 181.215C185.402 181.215 184.413 180.986 183.568 180.527C182.73 180.062 182.079 179.382 181.613 178.486C181.148 177.591 180.915 176.495 180.915 175.199C180.915 173.932 181.126 172.836 181.549 171.912C181.979 170.981 182.58 170.265 183.354 169.764C184.134 169.262 185.051 169.012 186.104 169.012ZM186.082 170.473C185.13 170.473 184.37 170.784 183.805 171.407C183.239 172.03 182.902 172.9 182.795 174.018H189.025C189.018 173.316 188.907 172.7 188.692 172.17C188.485 171.633 188.166 171.217 187.736 170.924C187.307 170.623 186.755 170.473 186.082 170.473ZM199.273 169.012C199.51 169.012 199.757 169.026 200.015 169.055C200.272 169.076 200.502 169.108 200.702 169.151L200.477 170.806C200.283 170.756 200.068 170.716 199.832 170.688C199.596 170.659 199.374 170.645 199.166 170.645C198.693 170.645 198.246 170.741 197.823 170.935C197.408 171.121 197.043 171.393 196.728 171.751C196.412 172.102 196.165 172.528 195.986 173.029C195.807 173.523 195.718 174.075 195.718 174.684V181H193.924V169.227H195.406L195.6 171.396H195.675C195.918 170.96 196.212 170.562 196.556 170.204C196.899 169.839 197.297 169.549 197.748 169.334C198.206 169.119 198.715 169.012 199.273 169.012ZM205.515 181L201.046 169.227H202.958L205.547 176.349C205.726 176.836 205.909 177.373 206.095 177.96C206.281 178.547 206.41 179.02 206.481 179.378H206.557C206.643 179.02 206.786 178.547 206.986 177.96C207.187 177.366 207.369 176.828 207.534 176.349L210.123 169.227H212.035L207.556 181H205.515ZM215.709 169.227V181H213.926V169.227H215.709ZM214.839 164.822C215.132 164.822 215.383 164.919 215.591 165.112C215.806 165.299 215.913 165.592 215.913 165.993C215.913 166.387 215.806 166.681 215.591 166.874C215.383 167.067 215.132 167.164 214.839 167.164C214.531 167.164 214.273 167.067 214.065 166.874C213.865 166.681 213.765 166.387 213.765 165.993C213.765 165.592 213.865 165.299 214.065 165.112C214.273 164.919 214.531 164.822 214.839 164.822ZM224.206 181.215C223.146 181.215 222.212 180.996 221.402 180.56C220.593 180.123 219.963 179.457 219.512 178.562C219.061 177.666 218.835 176.538 218.835 175.178C218.835 173.753 219.071 172.589 219.544 171.687C220.024 170.777 220.683 170.104 221.521 169.667C222.358 169.23 223.311 169.012 224.378 169.012C224.965 169.012 225.531 169.073 226.075 169.194C226.627 169.309 227.078 169.456 227.429 169.635L226.892 171.128C226.534 170.985 226.118 170.856 225.646 170.741C225.18 170.627 224.743 170.569 224.335 170.569C223.519 170.569 222.838 170.745 222.294 171.096C221.757 171.447 221.352 171.962 221.08 172.643C220.815 173.323 220.683 174.161 220.683 175.156C220.683 176.109 220.812 176.922 221.069 177.595C221.334 178.268 221.725 178.784 222.24 179.142C222.763 179.493 223.415 179.668 224.195 179.668C224.818 179.668 225.381 179.604 225.882 179.475C226.383 179.339 226.838 179.181 227.246 179.002V180.592C226.852 180.792 226.412 180.946 225.925 181.054C225.445 181.161 224.872 181.215 224.206 181.215ZM234.572 169.012C235.575 169.012 236.434 169.234 237.15 169.678C237.867 170.122 238.414 170.745 238.794 171.547C239.174 172.342 239.363 173.273 239.363 174.34V175.446H231.231C231.253 176.828 231.597 177.881 232.263 178.604C232.929 179.328 233.867 179.689 235.077 179.689C235.822 179.689 236.481 179.621 237.054 179.485C237.627 179.349 238.221 179.149 238.837 178.884V180.452C238.243 180.717 237.652 180.91 237.064 181.032C236.484 181.154 235.797 181.215 235.002 181.215C233.87 181.215 232.882 180.986 232.037 180.527C231.199 180.062 230.548 179.382 230.082 178.486C229.617 177.591 229.384 176.495 229.384 175.199C229.384 173.932 229.595 172.836 230.018 171.912C230.447 170.981 231.049 170.265 231.822 169.764C232.603 169.262 233.52 169.012 234.572 169.012ZM234.551 170.473C233.598 170.473 232.839 170.784 232.273 171.407C231.708 172.03 231.371 172.9 231.264 174.018H237.494C237.487 173.316 237.376 172.7 237.161 172.17C236.953 171.633 236.635 171.217 236.205 170.924C235.775 170.623 235.224 170.473 234.551 170.473ZM250.009 177.777C250.009 178.529 249.819 179.163 249.439 179.679C249.067 180.187 248.53 180.57 247.828 180.828C247.133 181.086 246.303 181.215 245.336 181.215C244.512 181.215 243.8 181.15 243.198 181.021C242.597 180.893 242.07 180.71 241.619 180.474V178.83C242.099 179.066 242.672 179.281 243.338 179.475C244.004 179.668 244.684 179.765 245.379 179.765C246.396 179.765 247.133 179.6 247.592 179.271C248.05 178.941 248.279 178.493 248.279 177.928C248.279 177.605 248.186 177.323 248 177.079C247.821 176.828 247.517 176.589 247.087 176.359C246.657 176.123 246.063 175.865 245.304 175.586C244.552 175.299 243.9 175.017 243.349 174.737C242.804 174.451 242.382 174.104 242.081 173.695C241.787 173.287 241.641 172.757 241.641 172.105C241.641 171.11 242.042 170.347 242.844 169.817C243.653 169.28 244.713 169.012 246.023 169.012C246.732 169.012 247.395 169.083 248.011 169.227C248.634 169.363 249.214 169.549 249.751 169.785L249.149 171.214C248.662 171.006 248.143 170.831 247.592 170.688C247.04 170.544 246.478 170.473 245.905 170.473C245.082 170.473 244.448 170.609 244.004 170.881C243.567 171.153 243.349 171.525 243.349 171.998C243.349 172.363 243.449 172.664 243.649 172.9C243.857 173.137 244.187 173.359 244.638 173.566C245.089 173.774 245.683 174.018 246.421 174.297C247.159 174.569 247.796 174.852 248.333 175.146C248.87 175.432 249.282 175.783 249.568 176.198C249.862 176.606 250.009 177.133 250.009 177.777Z" fill="black"/>
<path d="M158.875 136.75H167.125V130.5H174V123H167.125V116.75H158.875V123H152V130.5H158.875V136.75ZM163 153C156.629 151.542 151.37 148.219 147.222 143.031C143.074 137.844 141 132.083 141 125.75V110.5L163 103L185 110.5V125.75C185 132.083 182.926 137.844 178.778 143.031C174.63 148.219 169.371 151.542 163 153ZM163 147.75C167.767 146.375 171.708 143.625 174.825 139.5C177.942 135.375 179.5 130.792 179.5 125.75V113.938L163 108.312L146.5 113.938V125.75C146.5 130.792 148.058 135.375 151.175 139.5C154.292 143.625 158.233 146.375 163 147.75Z" fill="#009CA6"/>
</svg>
