<svg width="325" height="300" viewBox="0 0 325 300" fill="none" xmlns="http://www.w3.org/2000/svg">
<path d="M0 0H325V300H0V0Z" fill="#FAFBFC"/>
<path d="M103.257 170.681C102.39 170.681 101.61 170.831 100.915 171.132C100.228 171.425 99.6403 171.855 99.1533 172.421C98.6735 172.979 98.3047 173.656 98.0469 174.451C97.7891 175.246 97.6602 176.141 97.6602 177.137C97.6602 178.454 97.8643 179.6 98.2725 180.574C98.6878 181.541 99.3037 182.289 100.12 182.819C100.944 183.349 101.971 183.614 103.203 183.614C103.905 183.614 104.564 183.557 105.18 183.442C105.803 183.321 106.408 183.17 106.995 182.991V184.581C106.422 184.796 105.821 184.953 105.19 185.054C104.56 185.161 103.812 185.215 102.945 185.215C101.348 185.215 100.013 184.885 98.9385 184.227C97.8714 183.561 97.0693 182.622 96.5322 181.412C96.0023 180.202 95.7373 178.773 95.7373 177.126C95.7373 175.937 95.902 174.852 96.2314 173.871C96.568 172.883 97.055 172.031 97.6924 171.314C98.3369 170.598 99.1247 170.047 100.056 169.66C100.994 169.266 102.068 169.069 103.278 169.069C104.073 169.069 104.84 169.148 105.577 169.306C106.315 169.463 106.981 169.689 107.575 169.982L106.845 171.529C106.343 171.3 105.792 171.103 105.19 170.938C104.596 170.767 103.951 170.681 103.257 170.681ZM120.283 179.092C120.283 180.059 120.158 180.922 119.907 181.681C119.657 182.44 119.295 183.081 118.822 183.604C118.35 184.126 117.777 184.527 117.104 184.807C116.438 185.079 115.682 185.215 114.837 185.215C114.049 185.215 113.326 185.079 112.667 184.807C112.015 184.527 111.45 184.126 110.97 183.604C110.497 183.081 110.128 182.44 109.863 181.681C109.605 180.922 109.477 180.059 109.477 179.092C109.477 177.803 109.695 176.707 110.132 175.805C110.569 174.895 111.192 174.204 112.001 173.731C112.817 173.252 113.788 173.012 114.912 173.012C115.986 173.012 116.924 173.252 117.727 173.731C118.536 174.211 119.162 174.906 119.606 175.815C120.058 176.718 120.283 177.81 120.283 179.092ZM111.324 179.092C111.324 180.037 111.45 180.857 111.7 181.552C111.951 182.246 112.338 182.784 112.86 183.163C113.383 183.543 114.056 183.732 114.88 183.732C115.696 183.732 116.366 183.543 116.889 183.163C117.419 182.784 117.809 182.246 118.06 181.552C118.31 180.857 118.436 180.037 118.436 179.092C118.436 178.154 118.31 177.344 118.06 176.664C117.809 175.977 117.422 175.447 116.899 175.074C116.377 174.702 115.7 174.516 114.869 174.516C113.645 174.516 112.746 174.92 112.173 175.729C111.607 176.539 111.324 177.66 111.324 179.092ZM136.149 173.012C137.446 173.012 138.423 173.352 139.082 174.032C139.741 174.705 140.07 175.79 140.07 177.287V185H138.309V177.373C138.309 176.421 138.101 175.708 137.686 175.235C137.277 174.756 136.669 174.516 135.859 174.516C134.721 174.516 133.894 174.845 133.378 175.504C132.862 176.163 132.604 177.133 132.604 178.415V185H130.832V177.373C130.832 176.736 130.739 176.206 130.553 175.783C130.374 175.361 130.102 175.046 129.736 174.838C129.378 174.623 128.924 174.516 128.372 174.516C127.591 174.516 126.965 174.677 126.492 174.999C126.02 175.321 125.676 175.801 125.461 176.438C125.253 177.069 125.149 177.846 125.149 178.77V185H123.366V173.227H124.806L125.074 174.892H125.171C125.407 174.483 125.704 174.14 126.062 173.86C126.421 173.581 126.822 173.37 127.266 173.227C127.71 173.083 128.182 173.012 128.684 173.012C129.579 173.012 130.327 173.18 130.929 173.517C131.537 173.846 131.978 174.351 132.25 175.031H132.347C132.733 174.351 133.263 173.846 133.937 173.517C134.61 173.18 135.347 173.012 136.149 173.012ZM145.517 173.227V185H143.733V173.227H145.517ZM144.646 168.822C144.94 168.822 145.191 168.919 145.398 169.112C145.613 169.299 145.721 169.592 145.721 169.993C145.721 170.387 145.613 170.681 145.398 170.874C145.191 171.067 144.94 171.164 144.646 171.164C144.339 171.164 144.081 171.067 143.873 170.874C143.673 170.681 143.572 170.387 143.572 169.993C143.572 169.592 143.673 169.299 143.873 169.112C144.081 168.919 144.339 168.822 144.646 168.822ZM154.873 173.012C156.27 173.012 157.326 173.355 158.042 174.043C158.758 174.723 159.116 175.819 159.116 177.33V185H157.354V177.448C157.354 176.467 157.129 175.733 156.678 175.246C156.234 174.759 155.55 174.516 154.626 174.516C153.323 174.516 152.406 174.884 151.876 175.622C151.346 176.36 151.081 177.43 151.081 178.834V185H149.298V173.227H150.737L151.006 174.924H151.103C151.353 174.508 151.672 174.161 152.059 173.882C152.445 173.595 152.879 173.381 153.358 173.237C153.838 173.087 154.343 173.012 154.873 173.012ZM166.077 190.285C164.53 190.285 163.338 189.995 162.5 189.415C161.662 188.842 161.243 188.036 161.243 186.998C161.243 186.26 161.476 185.63 161.941 185.107C162.414 184.585 163.066 184.237 163.896 184.065C163.589 183.922 163.324 183.707 163.102 183.421C162.887 183.134 162.779 182.805 162.779 182.433C162.779 182.003 162.897 181.627 163.134 181.305C163.377 180.975 163.746 180.66 164.24 180.359C163.624 180.109 163.123 179.686 162.736 179.092C162.357 178.49 162.167 177.792 162.167 176.997C162.167 176.152 162.342 175.432 162.693 174.838C163.044 174.236 163.553 173.778 164.219 173.463C164.885 173.148 165.69 172.99 166.636 172.99C166.843 172.99 167.051 173.001 167.259 173.022C167.474 173.037 167.678 173.062 167.871 173.098C168.064 173.126 168.233 173.162 168.376 173.205H172.415V174.354L170.245 174.623C170.46 174.902 170.639 175.239 170.782 175.633C170.925 176.027 170.997 176.464 170.997 176.943C170.997 178.118 170.6 179.052 169.805 179.747C169.01 180.435 167.918 180.778 166.528 180.778C166.199 180.778 165.862 180.75 165.519 180.692C165.168 180.886 164.899 181.101 164.713 181.337C164.534 181.573 164.444 181.845 164.444 182.153C164.444 182.382 164.512 182.565 164.648 182.701C164.792 182.837 164.996 182.938 165.261 183.002C165.526 183.059 165.844 183.088 166.217 183.088H168.29C169.572 183.088 170.553 183.356 171.233 183.894C171.921 184.431 172.265 185.215 172.265 186.246C172.265 187.549 171.735 188.549 170.675 189.243C169.615 189.938 168.082 190.285 166.077 190.285ZM166.131 188.889C167.105 188.889 167.91 188.788 168.548 188.588C169.192 188.395 169.672 188.112 169.987 187.739C170.31 187.374 170.471 186.937 170.471 186.429C170.471 185.956 170.363 185.598 170.148 185.354C169.934 185.118 169.618 184.961 169.203 184.882C168.788 184.796 168.279 184.753 167.678 184.753H165.637C165.107 184.753 164.645 184.835 164.251 185C163.857 185.165 163.553 185.408 163.338 185.73C163.13 186.053 163.026 186.454 163.026 186.934C163.026 187.571 163.295 188.054 163.832 188.384C164.369 188.72 165.135 188.889 166.131 188.889ZM166.593 179.479C167.445 179.479 168.086 179.264 168.516 178.834C168.945 178.404 169.16 177.778 169.16 176.954C169.16 176.073 168.942 175.414 168.505 174.978C168.068 174.534 167.424 174.312 166.571 174.312C165.755 174.312 165.125 174.541 164.681 174.999C164.244 175.45 164.025 176.113 164.025 176.986C164.025 177.788 164.247 178.404 164.691 178.834C165.135 179.264 165.769 179.479 166.593 179.479ZM189.581 180.821C189.581 181.752 189.348 182.547 188.883 183.206C188.424 183.858 187.78 184.355 186.949 184.699C186.118 185.043 185.141 185.215 184.017 185.215C183.422 185.215 182.86 185.186 182.33 185.129C181.8 185.072 181.313 184.989 180.869 184.882C180.425 184.774 180.035 184.642 179.698 184.484V182.733C180.235 182.955 180.891 183.163 181.664 183.356C182.438 183.543 183.247 183.636 184.092 183.636C184.88 183.636 185.546 183.532 186.09 183.324C186.634 183.109 187.046 182.805 187.325 182.411C187.612 182.01 187.755 181.53 187.755 180.972C187.755 180.435 187.637 179.987 187.4 179.629C187.164 179.264 186.77 178.934 186.219 178.641C185.674 178.34 184.93 178.021 183.984 177.685C183.318 177.448 182.731 177.19 182.223 176.911C181.714 176.625 181.288 176.302 180.944 175.944C180.601 175.586 180.339 175.171 180.16 174.698C179.988 174.226 179.902 173.685 179.902 173.076C179.902 172.238 180.114 171.522 180.536 170.928C180.966 170.326 181.557 169.868 182.309 169.553C183.068 169.23 183.938 169.069 184.919 169.069C185.757 169.069 186.53 169.148 187.239 169.306C187.955 169.463 188.611 169.674 189.205 169.939L188.636 171.508C188.07 171.271 187.468 171.075 186.831 170.917C186.201 170.759 185.549 170.681 184.876 170.681C184.203 170.681 183.633 170.781 183.168 170.981C182.71 171.175 182.359 171.451 182.115 171.809C181.872 172.167 181.75 172.593 181.75 173.087C181.75 173.638 181.865 174.097 182.094 174.462C182.33 174.827 182.702 175.153 183.211 175.439C183.727 175.719 184.407 176.012 185.252 176.32C186.176 176.657 186.96 177.015 187.604 177.395C188.249 177.767 188.74 178.225 189.076 178.77C189.413 179.307 189.581 179.991 189.581 180.821ZM202.676 179.092C202.676 180.059 202.55 180.922 202.3 181.681C202.049 182.44 201.688 183.081 201.215 183.604C200.742 184.126 200.169 184.527 199.496 184.807C198.83 185.079 198.075 185.215 197.229 185.215C196.442 185.215 195.718 185.079 195.06 184.807C194.408 184.527 193.842 184.126 193.362 183.604C192.89 183.081 192.521 182.44 192.256 181.681C191.998 180.922 191.869 180.059 191.869 179.092C191.869 177.803 192.088 176.707 192.524 175.805C192.961 174.895 193.584 174.204 194.394 173.731C195.21 173.252 196.18 173.012 197.305 173.012C198.379 173.012 199.317 173.252 200.119 173.731C200.928 174.211 201.555 174.906 201.999 175.815C202.45 176.718 202.676 177.81 202.676 179.092ZM193.717 179.092C193.717 180.037 193.842 180.857 194.093 181.552C194.343 182.246 194.73 182.784 195.253 183.163C195.776 183.543 196.449 183.732 197.272 183.732C198.089 183.732 198.758 183.543 199.281 183.163C199.811 182.784 200.201 182.246 200.452 181.552C200.703 180.857 200.828 180.037 200.828 179.092C200.828 178.154 200.703 177.344 200.452 176.664C200.201 175.977 199.815 175.447 199.292 175.074C198.769 174.702 198.092 174.516 197.262 174.516C196.037 174.516 195.138 174.92 194.565 175.729C194 176.539 193.717 177.66 193.717 179.092ZM215.91 179.092C215.91 180.059 215.785 180.922 215.534 181.681C215.284 182.44 214.922 183.081 214.449 183.604C213.977 184.126 213.404 184.527 212.73 184.807C212.064 185.079 211.309 185.215 210.464 185.215C209.676 185.215 208.953 185.079 208.294 184.807C207.642 184.527 207.076 184.126 206.597 183.604C206.124 183.081 205.755 182.44 205.49 181.681C205.232 180.922 205.104 180.059 205.104 179.092C205.104 177.803 205.322 176.707 205.759 175.805C206.196 174.895 206.819 174.204 207.628 173.731C208.444 173.252 209.415 173.012 210.539 173.012C211.613 173.012 212.551 173.252 213.354 173.731C214.163 174.211 214.789 174.906 215.233 175.815C215.685 176.718 215.91 177.81 215.91 179.092ZM206.951 179.092C206.951 180.037 207.076 180.857 207.327 181.552C207.578 182.246 207.965 182.784 208.487 183.163C209.01 183.543 209.683 183.732 210.507 183.732C211.323 183.732 211.993 183.543 212.516 183.163C213.046 182.784 213.436 182.246 213.687 181.552C213.937 180.857 214.062 180.037 214.062 179.092C214.062 178.154 213.937 177.344 213.687 176.664C213.436 175.977 213.049 175.447 212.526 175.074C212.004 174.702 211.327 174.516 210.496 174.516C209.271 174.516 208.373 174.92 207.8 175.729C207.234 176.539 206.951 177.66 206.951 179.092ZM224.568 173.012C225.965 173.012 227.021 173.355 227.737 174.043C228.453 174.723 228.812 175.819 228.812 177.33V185H227.05V177.448C227.05 176.467 226.824 175.733 226.373 175.246C225.929 174.759 225.245 174.516 224.321 174.516C223.018 174.516 222.101 174.884 221.571 175.622C221.041 176.36 220.776 177.43 220.776 178.834V185H218.993V173.227H220.433L220.701 174.924H220.798C221.049 174.508 221.367 174.161 221.754 173.882C222.141 173.595 222.574 173.381 223.054 173.237C223.534 173.087 224.038 173.012 224.568 173.012Z" fill="black"/>
<path d="M162.75 158C159.313 158 156.093 157.406 153.091 156.219C150.089 155.031 147.476 153.427 145.253 151.406C143.03 149.385 141.266 147.01 139.959 144.281C138.653 141.552 138 138.625 138 135.5C138 132.375 138.653 129.448 139.959 126.719C141.266 123.99 143.03 121.615 145.253 119.594C147.476 117.573 150.089 115.969 153.091 114.781C156.093 113.594 159.313 113 162.75 113C166.508 113 170.072 113.729 173.441 115.188C176.809 116.646 179.663 118.708 182 121.375V115.5H187.5V130.5H171V125.5H178.563C176.683 123.167 174.369 121.333 171.619 120C168.869 118.667 165.913 118 162.75 118C157.388 118 152.839 119.698 149.103 123.094C145.368 126.49 143.5 130.625 143.5 135.5C143.5 140.375 145.368 144.51 149.103 147.906C152.839 151.302 157.388 153 162.75 153C167.563 153 171.768 151.583 175.366 148.75C178.964 145.917 181.083 142.333 181.725 138H187.363C186.675 143.708 183.982 148.469 179.284 152.281C174.586 156.094 169.075 158 162.75 158ZM170.45 146L160 136.5V123H165.5V134.5L174.3 142.5L170.45 146Z" fill="#009CA6"/>
</svg>
