<svg width="38" height="38" viewBox="0 0 38 38" fill="none" xmlns="http://www.w3.org/2000/svg">
<path d="M36.8598 19.35C36.8898 29.2 28.8897 37.2101 18.9697 37.3101C9.03967 37.4101 1.10971 29.3401 1.00971 19.4201C0.909709 9.4901 8.9796 1.56002 18.8996 1.46002C28.8196 1.50002 36.8298 9.50004 36.8598 19.35Z" fill="#DC721C" stroke="white" stroke-width="1.08"/>
<path d="M26.6396 12.7701C27.6996 12.7701 28.4596 11.96 28.3796 10.97C28.3696 9.90001 27.5697 9.15002 26.5697 9.23002C25.5097 9.23002 24.7497 10.0401 24.8297 11.0301C24.8397 11.9501 25.7096 12.7901 26.6396 12.7701Z" fill="white"/>
<path d="M11.6896 12.7801C12.7496 12.7701 13.5096 11.9701 13.4296 10.9701C13.3496 9.97006 12.6198 9.15007 11.6198 9.23007C10.5598 9.24007 9.79955 10.0401 9.87955 11.0401C9.81955 12.0201 10.6296 12.7801 11.6896 12.7801Z" fill="white"/>
<path d="M28.6596 13.2501C30.0096 13.2601 31.0096 14.2501 30.9296 15.5201C30.8896 16.2201 30.9696 20.69 30.9396 21.11C30.9196 21.54 30.6096 21.9401 30.1796 21.9201C29.7596 21.8901 29.4295 21.5201 29.3795 21.1601C29.3395 20.6601 29.4096 16.0601 29.4096 16.0601L28.9896 16.0301C28.9896 16.0301 29.0296 29.2101 28.9796 30.0601C28.9396 30.6301 28.4797 31.16 27.8397 31.2C27.1997 31.23 26.7396 30.7001 26.7096 30.0601C26.6996 29.1401 26.7096 21.9201 26.7096 21.9201L26.2897 21.8901C26.2897 21.8901 26.3397 29.1901 26.2897 30.0401C26.2497 30.6001 25.7896 31.1401 25.1496 31.1701C24.5896 31.1401 24.0497 30.6801 24.0197 30.0401C23.9997 29.1201 24.0297 16.0101 24.0297 16.0101L23.6098 15.9901C23.6098 15.9901 23.6097 20.52 23.5797 21.09C23.5497 21.51 23.1797 21.8401 22.8197 21.8901C22.3997 21.8601 22.0597 21.4901 22.0097 21.1301C21.9697 20.7801 21.9697 16.1001 21.9997 15.5401C22.0197 14.1901 22.9997 13.1901 24.2697 13.2701C25.2597 13.3301 28.0196 13.2801 28.6596 13.2501Z" fill="white"/>
<path d="M11.8398 24.12C11.8398 24.12 11.8497 29.7201 11.8097 30.4201C11.8497 30.9201 12.1797 31.3 12.7497 31.33C13.2397 31.29 13.6196 30.96 13.6496 30.4C13.6796 29.97 13.6496 26.92 13.6896 24.09L16.0898 24.1L13.5698 15.66L13.9897 15.6801C13.9897 15.6801 15.3497 20.09 15.4597 20.66C15.5697 21.09 15.9898 21.26 16.3398 21.21C16.6998 21.16 16.8697 20.7501 16.7497 20.3101C16.6297 20.0201 15.8797 17.21 15.2397 14.98C15.0697 14.19 13.9998 13.2701 13.0698 13.2901C12.5798 13.3301 10.5196 13.27 10.1696 13.32C9.24961 13.34 8.34977 14.1301 8.07977 15.0401C7.43977 17.3301 6.55966 20.11 6.46966 20.46C6.37966 20.81 6.55967 21.32 6.97967 21.34C7.40967 21.37 7.8398 21.25 7.8598 20.83C8.0398 20.28 9.30975 15.82 9.30975 15.82L9.72967 15.84L7.22967 24.19L9.63958 24.2C9.67958 27.11 9.6298 30.22 9.6098 30.5C9.6498 31 9.97974 31.37 10.5497 31.41C11.0397 31.37 11.4196 31.04 11.4496 30.47C11.4996 29.77 11.4897 24.1701 11.4897 24.1701L11.8398 24.12Z" fill="white"/>
<path d="M18.4097 9.31012L18.4497 31.3001H20.0498L20.0098 9.30011L18.4097 9.31012Z" fill="white"/>
</svg>
