<svg width="30" height="30" viewBox="0 0 30 30" fill="none" xmlns="http://www.w3.org/2000/svg">
<g id="Group 34">
<g id="confIcon">
<circle id="Ellipse 17" cx="15" cy="15" r="15" fill="#51AAF2"/>
</g>
<g id="Group 32">
<g id="SVGRepo_iconCarrier">
<g id="Group">
<path id="Vector" d="M8.26149 11.3629C8.98805 11.1648 9.41924 10.4049 9.22456 9.66561C9.02989 8.9263 8.28308 8.48755 7.55652 8.68564C6.82995 8.88373 6.39877 9.64365 6.59344 10.383C6.78812 11.1223 7.53493 11.561 8.26149 11.3629Z" fill="white"/>
<path id="Vector_2" d="M10.3901 18.9274H8.73129C8.73129 18.9274 8.64398 18.9274 8.57413 18.9274C7.82329 18.8563 7.17721 18.3055 6.98513 17.5414L5.85013 13.2416C5.78028 12.9928 5.53582 12.8685 5.32628 12.9218C5.08182 12.9928 4.95958 13.2416 5.01197 13.4548L6.12951 17.7547C6.42636 18.874 7.35182 19.6914 8.48683 19.7802C8.5916 19.798 8.71383 19.798 8.71383 19.798H10.3727C10.6171 19.798 10.7918 19.6025 10.8092 19.3538C10.8092 19.105 10.6346 18.9274 10.3901 18.9274Z" fill="white"/>
<path id="Vector_3" d="M12.3458 16.5109H10.0758C10.0234 15.6402 9.88375 14.7696 9.67421 13.899C9.65675 13.8279 9.60437 13.6502 9.60437 13.6325C9.30752 12.5131 8.25982 11.8023 7.15974 11.909C7.15974 11.909 7.02005 11.9267 6.98513 11.9267C6.58351 12.0333 6.33905 12.4598 6.44382 12.8862L7.61374 17.3104C7.73597 17.8079 8.15505 18.1811 8.6789 18.2166H8.78367H11.4902V21.3793C11.4902 21.8591 11.8569 22.25 12.3458 22.25C12.8173 22.25 13.2015 21.8768 13.2015 21.3793V17.3815C13.2015 17.1505 13.1141 16.9373 12.9395 16.7774C12.7824 16.5997 12.5554 16.5109 12.3458 16.5109Z" fill="white"/>
</g>
<g id="Group_2">
<path id="Vector_4" d="M23.4042 10.394C23.5989 9.6547 23.1677 8.89479 22.4411 8.6967C21.7146 8.49861 20.9677 8.93736 20.7731 9.67667C20.5784 10.416 21.0096 11.1759 21.7361 11.374C22.4627 11.5721 23.2095 11.1333 23.4042 10.394Z" fill="white"/>
<path id="Vector_5" d="M19.6099 18.9274H21.2687C21.2687 18.9274 21.356 18.9274 21.4259 18.9274C22.1767 18.8563 22.8228 18.3055 23.0149 17.5414L24.1499 13.2416C24.2197 12.9928 24.4642 12.8685 24.6737 12.9218C24.9182 12.9928 25.0404 13.2416 24.988 13.4548L23.8705 17.7547C23.5736 18.874 22.6482 19.6914 21.5132 19.7802C21.4084 19.798 21.2862 19.798 21.2862 19.798H19.6273C19.3829 19.798 19.2082 19.6025 19.1908 19.3538C19.1908 19.105 19.3829 18.9274 19.6099 18.9274Z" fill="white"/>
<path id="Vector_6" d="M17.6542 16.5109H19.9242C19.9766 15.6402 20.1162 14.7696 20.3258 13.899C20.3433 13.8279 20.3956 13.6502 20.3956 13.6325C20.6925 12.5131 21.7402 11.8023 22.8403 11.909C22.8403 11.909 22.9799 11.9267 23.0149 11.9267C23.4165 12.0333 23.661 12.4598 23.5562 12.8862L22.3688 17.3104C22.2466 17.8079 21.8275 18.1811 21.3036 18.2166H21.1989H18.5098V21.3793C18.5098 21.8591 18.1431 22.25 17.6542 22.25C17.1652 22.25 16.7985 21.8768 16.7985 21.3793V17.3815C16.7985 17.1505 16.8859 16.9373 17.0605 16.7774C17.2176 16.5997 17.4446 16.5109 17.6542 16.5109Z" fill="white"/>
</g>
<path id="Vector_7" d="M19.4702 14.1833H10.6346V15.2494H19.4702V14.1833Z" fill="white"/>
<path id="Vector_8" d="M15.0524 10.5586C15.7467 10.5586 16.3096 9.98584 16.3096 9.2793C16.3096 8.57276 15.7467 8 15.0524 8C14.358 8 13.7952 8.57276 13.7952 9.2793C13.7952 9.98584 14.358 10.5586 15.0524 10.5586Z" fill="white"/>
<path id="Vector_9" d="M13.0268 13.668V12.904H13.0094C13.0094 12.8152 13.0792 12.7441 13.1665 12.7441C13.2538 12.7441 13.3237 12.8152 13.3237 12.904V13.668H16.7985V12.904H16.7811C16.7811 12.8152 16.8509 12.7441 16.9382 12.7441C17.0255 12.7441 17.0954 12.8152 17.0954 12.904V13.668H18.178V12.5842C18.178 11.6958 17.4795 10.985 16.6065 10.985H13.4634C12.5903 10.985 11.8918 11.6958 11.8918 12.5842V13.668H13.0268Z" fill="white"/>
</g>
</g>
</g>
</svg>
