<svg width="35" height="35" viewBox="0 0 35 35" fill="none" xmlns="http://www.w3.org/2000/svg">
<path d="M34.16 17.53C34.16 26.74 26.8299 34.15 17.6199 34.16C8.40991 34.16 1.00004 26.83 1.00004 17.62C0.980041 8.55 8.32007 1.00001 17.5301 1.00001C26.7401 0.99001 34.15 8.32004 34.16 17.53Z" fill="#769658" stroke="white" stroke-width="1.1" stroke-miterlimit="10"/>
<path d="M17.4199 5.00028C18.7699 5.01028 19.7699 5.99029 19.6899 7.26029C19.6199 8.53029 18.9199 9.55031 17.4299 9.53031C16.0799 9.52031 15.1599 8.4703 15.1599 7.2703C15.0199 6.0503 16.0799 4.98028 17.4199 5.00028Z" fill="white"/>
<path d="M18.0798 22.0403V27.7803C18.0398 28.4803 18.7099 29.0902 19.3499 29.0602C19.9899 29.0302 20.6599 28.4303 20.6299 27.7903V22.0503C20.6699 21.3503 19.9999 20.7402 19.3599 20.7702C18.5899 20.6502 18.0598 21.2603 18.0798 22.0403Z" fill="white"/>
<path d="M25.89 25.1403C25.87 25.5603 25.57 25.8302 25.21 25.8802L21.3199 25.8502L21.26 22.1603L22.96 22.1302L22.8999 18.4402C22.9299 18.0102 23.23 17.7502 23.59 17.7002L25.0699 17.7202C25.4999 17.7502 25.7599 18.0503 25.8099 18.4003L25.89 25.1403Z" fill="white"/>
<path d="M17.34 26.0303L9.76001 26.0602C9.33001 26.0402 9.0699 25.7402 9.0199 25.3802L9 18.7202C9.03 18.2902 9.32993 18.0302 9.67993 17.9802L11.1699 18.0002C11.5899 18.0302 11.8599 18.3302 11.9099 18.6802L11.97 22.3702L17.4199 22.3502L17.34 26.0303Z" fill="white"/>
<path d="M13.2999 17.9903C13.2499 18.7003 13.7098 19.3603 14.4098 19.5503L20.0198 20.4602C20.7198 20.5002 21.3899 20.0402 21.5699 19.3502C21.6199 18.6402 21.1599 17.9803 20.4599 17.7903L14.8499 16.8803C14.1499 16.8403 13.4799 17.2903 13.2999 17.9903Z" fill="white"/>
<path d="M17.4399 11.6602L20.4499 11.1302L20.4599 13.2602C20.9299 13.6402 21.9499 14.3402 21.9499 14.3402C22.0199 14.4202 22.0699 14.6302 22.0699 14.7702C21.9899 14.8402 21.85 14.8302 21.63 14.8902L19.7399 13.5002C19.3299 13.1902 18.8999 13.3002 18.5899 13.7102C18.2799 14.1202 18.3999 14.5502 18.7999 14.8602L21.9899 17.1102C22.0599 17.1802 22.4099 17.2702 22.5499 17.2802C22.6899 17.2902 22.98 17.1702 23.13 17.0302C23.43 16.7702 23.5999 16.3602 23.4799 15.9202L22.2899 12.3101C21.9899 11.3701 21.1299 10.3902 19.9899 10.4702L14.9599 10.5102C13.7599 10.5102 12.9099 11.5202 12.6499 12.4202L11.4299 16.0302C11.3399 16.3802 11.4599 16.8102 11.8599 17.1202C12.0699 17.2102 12.2799 17.2902 12.4199 17.3002C12.5599 17.3102 12.8499 17.1802 12.9999 17.0502L16.1899 14.7702C16.5599 14.4402 16.6599 13.9501 16.3299 13.5701C15.9999 13.2001 15.51 13.1001 15.14 13.4301L13.1999 14.8702C13.1299 14.9302 12.9099 14.9902 12.8599 14.7802C12.8599 14.7802 12.7999 14.5601 12.9499 14.4301C12.9499 14.4301 13.9899 13.6401 14.4999 13.3201L14.4899 11.1901L17.4399 11.6602Z" fill="white"/>
</svg>
