<svg width="28" height="28" viewBox="0 0 28 28" fill="none" xmlns="http://www.w3.org/2000/svg">
<path d="M0.799805 1.25012L0.839722 27.2501L26.8397 27.2101L26.7998 1.21008L0.799805 1.25012Z" fill="#3E4F9D" stroke="white" stroke-width="0.9392" stroke-miterlimit="3.9998"/>
<path d="M20.0498 16.5801C20.0498 16.5801 20.0197 11.2601 20.0197 9.00012C19.9897 8.36012 19.5197 7.8301 18.8797 7.8601C18.3197 7.8301 17.7197 8.36012 17.7497 9.00012C17.7697 10.9801 17.7798 16.5801 17.7798 16.5801C17.7798 16.5801 17.7798 16.5801 16.0498 14.7801C15.6498 14.3301 14.9497 14.2801 14.5697 14.7601C14.1197 15.1501 14.1398 15.9301 14.5398 16.3801C15.7998 17.8101 18.0697 20.0701 18.0697 20.0701C18.4597 20.5201 19.1798 20.4201 19.5498 20.0901C19.5498 20.0901 21.3798 18.0801 23.0398 16.3401C23.4898 15.9401 23.4697 15.1601 23.0697 14.7101C22.6697 14.2601 21.9697 14.2201 21.5797 14.6901C20.2197 16.1601 20.0498 16.5801 20.0498 16.5801Z" fill="white"/>
<path d="M7.73978 11.7201C7.73978 11.7201 7.76981 17.0302 7.76981 19.3002C7.79981 19.9402 8.25982 20.4602 8.89982 20.4302C9.53982 20.4002 10.0698 19.9302 10.0398 19.2902C10.0198 17.3102 10.0098 11.7101 10.0098 11.7101C10.0098 11.7101 10.0098 11.7102 11.7398 13.5202C12.1298 13.9702 12.8498 13.8702 13.2198 13.5402C13.5998 13.2102 13.6498 12.3602 13.2498 11.9102C11.9898 10.4902 9.71976 8.22014 9.71976 8.22014C9.32976 7.77014 8.60978 7.87012 8.23978 8.20012C8.23978 8.20012 6.34979 10.1401 4.74979 11.9601C4.29979 12.3501 4.31976 13.1301 4.71976 13.5801C5.11976 14.0301 5.82975 13.9401 6.20975 13.6001C7.50975 12.0601 7.73978 11.7201 7.73978 11.7201Z" fill="white"/>
</svg>
