<svg width="160" height="87" viewBox="0 0 160 87" fill="none" xmlns="http://www.w3.org/2000/svg">
<g id="exitIcon">
<g id="Group 33">
<rect id="Rectangle 63" width="160" height="87" rx="3" fill="#D71920"/>
<path id="EXIT" d="M25.1605 62V25.6364H49.6634V31.9751H32.8487V40.6399H48.4027V46.9787H32.8487V55.6612H49.7344V62H25.1605ZM62.9846 25.6364L70.3176 38.0298H70.6017L77.9703 25.6364H86.6529L75.5556 43.8182L86.9015 62H78.0591L70.6017 49.5888H70.3176L62.8603 62H54.0534L65.4348 43.8182L54.2665 25.6364H62.9846ZM99.2061 25.6364V62H91.5179V25.6364H99.2061ZM104.147 31.9751V25.6364H134.012V31.9751H122.879V62H115.279V31.9751H104.147Z" fill="white"/>
<rect id="Rectangle 64" x="10.5" y="9.5" width="141" height="69" rx="2.5" stroke="white"/>
</g>
<path id="Arrow 1" d="M157.414 45.4142C158.195 44.6332 158.195 43.3668 157.414 42.5858L144.686 29.8579C143.905 29.0768 142.639 29.0768 141.858 29.8579C141.077 30.6389 141.077 31.9052 141.858 32.6863L153.172 44L141.858 55.3137C141.077 56.0948 141.077 57.3611 141.858 58.1421C142.639 58.9232 143.905 58.9232 144.686 58.1421L157.414 45.4142ZM130 46L156 46V42L130 42V46Z" fill="white"/>
</g>
</svg>
