<svg width="38" height="38" viewBox="0 0 38 38" fill="none" xmlns="http://www.w3.org/2000/svg">
<path d="M36.9298 18.5201C36.9598 28.3701 28.9497 36.5302 18.9597 36.5502C9.10968 36.5802 1.09966 28.5801 1.06966 18.5901C1.03966 8.74008 9.03969 0.730122 18.9697 0.630122C28.8897 0.530122 36.8898 8.68014 36.9298 18.5201Z" fill="#DC721C" stroke="white" stroke-width="1.2156"/>
<path d="M14.0997 12.95L21.4198 12.61V26.5001C21.3898 26.9201 21.5197 27.21 21.7097 27.44C21.9897 27.6 22.3397 27.6901 22.8297 27.7901H23.8898L23.8597 29.4101L14.0098 29.45L14.0398 27.82L15.0997 27.8101C15.6697 27.8501 16.0997 27.7301 16.3297 27.3901C16.4897 27.1201 16.7297 26.6401 16.6997 26.0001L16.7197 16.5101C16.6897 15.8701 16.4997 15.3601 16.2397 15.0601C15.9697 14.7601 15.4197 14.5801 14.8497 14.5501L14.1498 14.5101L14.0997 12.95Z" fill="white"/>
<path d="M18.6298 4.93011C19.4098 4.91011 20.0998 5.24 20.6398 5.7C21.2398 6.23 21.4197 6.88009 21.4397 7.66009C21.4597 8.44009 21.1398 9.13009 20.6798 9.66009C20.1498 10.2701 19.4998 10.44 18.7198 10.47C17.9398 10.49 17.2497 10.16 16.7097 9.7C16.1097 9.17 15.9298 8.52004 15.9098 7.74004C15.8898 6.96004 16.2098 6.27003 16.6698 5.73003C17.1298 5.20003 17.7898 4.88011 18.6298 4.93011Z" fill="white"/>
</svg>
