<svg width="30" height="30" viewBox="0 0 30 30" fill="none" xmlns="http://www.w3.org/2000/svg">
<g id="retailIcon">
<circle id="Ellipse 18" cx="15" cy="15" r="15" fill="#3E4F9D"/>
<path id="Vector" d="M23.2601 6.35558C23.2471 6.08027 23.0564 5.84602 22.7975 5.79096C22.7752 5.7864 22.7533 5.78305 22.7313 5.78092L15.2613 5.00304C15.0876 4.98479 14.9183 5.04929 14.7958 5.17827L5.99057 14.4495C4.66981 15.8401 4.66981 16.6882 5.99057 18.0785L11.5781 23.962C12.1702 24.5857 12.6897 25 13.3017 25C13.9137 25 14.4332 24.5844 15.0241 23.9617L23.8308 14.6899C23.9533 14.5612 24.0142 14.3814 23.9972 14.1998L23.2601 6.35558ZM14.2072 23.1014C13.9296 23.3937 13.5334 23.7828 13.3017 23.7828C13.0697 23.7828 12.6732 23.3937 12.3953 23.1014L6.8077 17.2179C5.94405 16.3089 5.94405 16.2191 6.8077 15.3101L15.4205 6.24211L22.1537 6.94363L22.8206 14.0331L14.2072 23.1014Z" fill="white"/>
<path id="Vector_2" d="M19.0002 8C17.8977 8 17 8.89725 17 10C17 11.1027 17.8977 12 19.0002 12C20.1032 12 21 11.1027 21 10C21 8.89725 20.103 8 19.0002 8ZM19.0002 11.0352C18.4293 11.0352 17.9648 10.5707 17.9648 10C17.9648 9.42933 18.4293 8.96479 19.0002 8.96479C19.5716 8.96479 20.0352 9.42933 20.0352 10C20.0352 10.5707 19.5712 11.0352 19.0002 11.0352Z" fill="white"/>
<path id="Vector_3" fill-rule="evenodd" clip-rule="evenodd" d="M13.8623 18.0381C14.5592 17.3251 14.6244 16.2299 14.1125 15.5016L15.5051 14.0768C15.6318 14.329 15.813 14.5382 15.6972 14.8157C15.5932 15.066 15.7 15.321 15.9345 15.3849C16.1701 15.449 16.445 15.2965 16.5499 15.0461C16.8091 14.4227 16.5803 13.847 16.2308 13.3458L17.0848 12.4721L16.7126 12.1083L15.8631 12.9774C15.1299 12.4672 14.0426 12.5716 13.3382 13.2922C12.6351 14.0116 12.5538 15.0976 13.0812 15.8236L11.6791 17.2581C11.537 16.9975 11.3694 16.7926 11.4908 16.5025C11.5965 16.252 11.49 15.9974 11.2559 15.9339C11.0203 15.869 10.7455 16.0199 10.6398 16.2703C10.3738 16.9069 10.5987 17.4894 10.9676 17.9981L10.14 18.8449L10.4951 19.192L11.3261 18.3419C12.0611 18.8365 13.1642 18.7524 13.8623 18.0381ZM13.9485 13.8887C14.2668 13.5631 14.7604 13.511 15.1549 13.7247L13.8108 15.0998C13.589 14.7095 13.6295 14.2152 13.9485 13.8887ZM12.0507 17.6058L13.3887 16.2369C13.6047 16.6331 13.5668 17.1225 13.2535 17.4431C12.9402 17.7636 12.4518 17.8127 12.0507 17.6058Z" fill="white"/>
</g>
</svg>
