<svg width="39" height="39" viewBox="0 0 39 39" fill="none" xmlns="http://www.w3.org/2000/svg">
<path d="M37.8397 19.27C37.8197 9.13997 29.7498 1.0699 19.6098 1.0799C9.47975 1.0999 1.40981 9.18001 1.41981 19.31C1.43981 29.44 9.51979 37.5099 19.6498 37.4999C29.7798 37.4799 37.8597 29.41 37.8397 19.27Z" fill="#159BD3" stroke="white" stroke-width="1.216"/>
<path d="M17.9698 23.2299C16.6198 25.6199 14.4798 26.9799 11.7198 27.0199C7.95975 27.0099 4.82975 23.9099 4.83975 20.1499C4.85975 16.3999 7.95974 13.2599 11.7097 13.2799C14.2597 13.2899 16.5198 14.6399 17.6098 16.4699L31.4898 16.4799C31.4898 16.4799 33.5597 18.6599 33.9597 18.9699C34.3597 19.4099 34.2798 19.6199 33.9698 20.0299C33.6598 20.4299 31.0998 22.8299 31.0998 22.8299L29.3598 21.1599L27.6997 22.8999L26.1698 21.18L24.5098 22.92L22.7698 21.2499L20.5897 23.3199L17.9698 23.2299Z" fill="white"/>
<path d="M8.76983 22.02C9.82983 22.02 10.5898 21.2199 10.5898 20.0099C10.5798 18.9499 9.78986 18.0499 8.79986 17.9899C7.73986 17.9899 6.83977 18.7899 6.83977 19.9899C6.76977 21.1199 7.69983 22.03 8.76983 22.02Z" fill="#159BD3"/>
</svg>
