<svg width="38" height="38" viewBox="0 0 38 38" fill="none" xmlns="http://www.w3.org/2000/svg">
<path d="M19.0897 36.6101C9.23968 36.6401 1.22973 28.6401 1.25973 18.8601C1.28973 9.09007 9.22972 1.00013 18.9997 1.04013C28.8497 1.00013 36.8597 9.00012 36.8297 18.7801C36.9397 28.5601 29.0797 36.5801 19.0897 36.6101Z" fill="#DC721C"/>
<path d="M19.0398 1.53013C28.5298 1.55013 36.3497 9.19004 36.3297 18.82C36.3097 28.31 28.6798 36.1301 19.0498 36.1101C9.5498 36.0901 1.72977 28.46 1.75977 18.82C1.98977 9.27004 9.5498 1.52013 19.0398 1.53013ZM19.1097 0.410132C8.97974 0.420132 0.749707 8.63005 0.699707 18.8301C0.779707 29.0401 8.91975 37.1901 19.1198 37.2401C29.2498 37.2301 37.4798 29.02 37.5298 18.82C37.4498 8.62004 29.2397 0.390132 19.1097 0.410132Z" fill="white"/>
<path d="M27.5998 17.86C27.8298 17.66 27.9798 17.5301 28.3998 17.5501L30.5898 17.62C32.5798 17.6 34.0897 15.99 34.0697 14C34.0497 12.02 32.4498 10.5001 30.5998 10.5301C30.3198 10.5201 26.7798 10.5801 26.4898 10.5601C25.4298 10.5701 24.4798 11.0101 24.0198 11.5501C23.4898 12.1501 19.9397 15.69 19.9397 15.69L19.9497 14.48C19.9397 13.42 19.1397 12.6601 18.0797 12.6701C17.0097 12.6701 16.2498 13.48 16.3398 14.48L16.3197 19.2901C16.3197 19.2901 12.9998 22.63 12.8498 22.76C12.6298 22.96 12.4798 23.09 12.0498 23.07C11.7698 23.05 10.5698 23.05 9.85978 23C7.87978 23.02 6.21979 24.62 6.24979 26.47C6.26979 28.45 7.87978 29.97 9.85978 29.95C9.99978 29.96 13.5498 29.8901 13.9698 29.9201C15.0298 29.9101 15.9797 29.4701 16.4397 28.9301C17.1097 28.3401 27.5198 18.07 27.5998 17.86ZM15.0898 27.86C14.8598 28.06 14.3598 28.2401 13.9998 28.2901C13.7198 28.2701 10.5297 28.29 9.81974 28.24C8.75974 28.25 8.02981 27.43 8.01981 26.5C8.00981 25.44 8.8398 24.71 9.7598 24.7H12.1698C12.8698 24.75 13.5398 24.2901 13.9898 23.8901C14.5198 23.2901 25.1498 12.82 25.3798 12.62C25.5998 12.42 26.1098 12.24 26.4598 12.19C26.7498 12.21 29.9398 12.19 30.6398 12.24C31.6998 12.23 32.4297 13.05 32.4497 13.98C32.4497 15.04 31.6298 15.7701 30.7098 15.7801H28.2998C27.5898 15.7301 26.9298 16.19 26.4798 16.58C25.6598 17.17 15.2398 27.73 15.0898 27.86ZM18.0298 12.1701C19.0998 12.1601 19.9998 11.37 19.9198 10.37C19.9098 9.31003 19.1098 8.5501 18.0398 8.5601C16.9798 8.5601 16.2198 9.37002 16.2998 10.36C16.1698 11.42 17.1098 12.1801 18.0298 12.1701Z" fill="white"/>
</svg>
