<svg width="325" height="300" viewBox="0 0 325 300" fill="none" xmlns="http://www.w3.org/2000/svg">
<path d="M0 0H325V300H0V0Z" fill="white"/>
<path d="M121.325 185H119.488V170.906H114.547V169.295H126.245V170.906H121.325V185ZM132.884 173.012C133.886 173.012 134.746 173.234 135.462 173.678C136.178 174.122 136.726 174.745 137.105 175.547C137.485 176.342 137.675 177.273 137.675 178.34V179.446H129.543C129.564 180.828 129.908 181.881 130.574 182.604C131.24 183.328 132.178 183.689 133.389 183.689C134.133 183.689 134.792 183.621 135.365 183.485C135.938 183.349 136.533 183.149 137.148 182.884V184.452C136.554 184.717 135.963 184.91 135.376 185.032C134.796 185.154 134.108 185.215 133.313 185.215C132.182 185.215 131.194 184.986 130.349 184.527C129.511 184.062 128.859 183.382 128.394 182.486C127.928 181.591 127.695 180.495 127.695 179.199C127.695 177.932 127.907 176.836 128.329 175.912C128.759 174.981 129.36 174.265 130.134 173.764C130.914 173.262 131.831 173.012 132.884 173.012ZM132.862 174.473C131.91 174.473 131.151 174.784 130.585 175.407C130.019 176.03 129.683 176.9 129.575 178.018H135.806C135.799 177.316 135.688 176.7 135.473 176.17C135.265 175.633 134.946 175.217 134.517 174.924C134.087 174.623 133.535 174.473 132.862 174.473ZM153.487 173.012C154.784 173.012 155.761 173.352 156.42 174.032C157.079 174.705 157.408 175.79 157.408 177.287V185H155.646V177.373C155.646 176.421 155.439 175.708 155.023 175.235C154.615 174.756 154.007 174.516 153.197 174.516C152.059 174.516 151.231 174.845 150.716 175.504C150.2 176.163 149.942 177.133 149.942 178.415V185H148.17V177.373C148.17 176.736 148.077 176.206 147.891 175.783C147.712 175.361 147.439 175.046 147.074 174.838C146.716 174.623 146.261 174.516 145.71 174.516C144.929 174.516 144.303 174.677 143.83 174.999C143.357 175.321 143.014 175.801 142.799 176.438C142.591 177.069 142.487 177.846 142.487 178.77V185H140.704V173.227H142.144L142.412 174.892H142.509C142.745 174.483 143.042 174.14 143.4 173.86C143.758 173.581 144.16 173.37 144.604 173.227C145.048 173.083 145.52 173.012 146.021 173.012C146.917 173.012 147.665 173.18 148.267 173.517C148.875 173.846 149.316 174.351 149.588 175.031H149.685C150.071 174.351 150.601 173.846 151.274 173.517C151.948 173.18 152.685 173.012 153.487 173.012ZM166.604 173.012C168.072 173.012 169.243 173.517 170.116 174.526C170.99 175.536 171.427 177.054 171.427 179.081C171.427 180.42 171.226 181.545 170.825 182.454C170.424 183.364 169.858 184.051 169.128 184.517C168.405 184.982 167.549 185.215 166.561 185.215C165.938 185.215 165.39 185.132 164.917 184.968C164.444 184.803 164.04 184.581 163.703 184.302C163.367 184.022 163.087 183.718 162.865 183.389H162.736C162.758 183.668 162.783 184.005 162.812 184.398C162.847 184.792 162.865 185.136 162.865 185.43V190.264H161.071V173.227H162.543L162.779 174.967H162.865C163.094 174.609 163.374 174.283 163.703 173.989C164.033 173.688 164.434 173.452 164.906 173.28C165.386 173.101 165.952 173.012 166.604 173.012ZM166.292 174.516C165.476 174.516 164.817 174.673 164.315 174.988C163.821 175.303 163.46 175.776 163.23 176.406C163.001 177.029 162.88 177.813 162.865 178.759V179.103C162.865 180.098 162.973 180.939 163.188 181.627C163.41 182.314 163.771 182.837 164.272 183.195C164.781 183.553 165.461 183.732 166.313 183.732C167.044 183.732 167.653 183.535 168.14 183.142C168.627 182.748 168.988 182.2 169.225 181.498C169.468 180.789 169.59 179.976 169.59 179.06C169.59 177.67 169.318 176.567 168.773 175.751C168.236 174.927 167.409 174.516 166.292 174.516ZM176.336 185H174.542V168.285H176.336V185ZM184.511 173.033C185.914 173.033 186.956 173.348 187.637 173.979C188.317 174.609 188.657 175.615 188.657 176.997V185H187.357L187.014 183.26H186.928C186.598 183.689 186.255 184.051 185.896 184.345C185.538 184.631 185.123 184.85 184.65 185C184.185 185.143 183.612 185.215 182.932 185.215C182.215 185.215 181.578 185.09 181.02 184.839C180.468 184.588 180.031 184.209 179.709 183.7C179.394 183.192 179.236 182.547 179.236 181.767C179.236 180.592 179.702 179.69 180.633 179.06C181.564 178.429 182.982 178.086 184.887 178.028L186.917 177.942V177.223C186.917 176.206 186.699 175.493 186.262 175.085C185.825 174.677 185.209 174.473 184.414 174.473C183.798 174.473 183.211 174.562 182.652 174.741C182.094 174.92 181.564 175.132 181.062 175.375L180.515 174.021C181.045 173.749 181.653 173.517 182.341 173.323C183.028 173.13 183.752 173.033 184.511 173.033ZM186.896 179.199L185.102 179.274C183.633 179.332 182.599 179.572 181.997 179.994C181.396 180.417 181.095 181.015 181.095 181.788C181.095 182.461 181.299 182.959 181.707 183.281C182.115 183.604 182.656 183.765 183.329 183.765C184.375 183.765 185.23 183.475 185.896 182.895C186.562 182.314 186.896 181.444 186.896 180.284V179.199ZM196.134 183.754C196.427 183.754 196.728 183.729 197.036 183.679C197.344 183.629 197.595 183.568 197.788 183.496V184.882C197.58 184.975 197.29 185.054 196.918 185.118C196.553 185.183 196.195 185.215 195.844 185.215C195.221 185.215 194.655 185.107 194.146 184.893C193.638 184.671 193.23 184.298 192.922 183.775C192.621 183.253 192.471 182.529 192.471 181.605V174.623H190.795V173.753L192.481 173.055L193.19 170.498H194.265V173.227H197.713V174.623H194.265V181.552C194.265 182.289 194.433 182.841 194.77 183.206C195.113 183.571 195.568 183.754 196.134 183.754ZM204.706 173.012C205.709 173.012 206.568 173.234 207.284 173.678C208 174.122 208.548 174.745 208.928 175.547C209.307 176.342 209.497 177.273 209.497 178.34V179.446H201.365C201.387 180.828 201.73 181.881 202.396 182.604C203.062 183.328 204.001 183.689 205.211 183.689C205.956 183.689 206.615 183.621 207.188 183.485C207.76 183.349 208.355 183.149 208.971 182.884V184.452C208.376 184.717 207.785 184.91 207.198 185.032C206.618 185.154 205.931 185.215 205.136 185.215C204.004 185.215 203.016 184.986 202.171 184.527C201.333 184.062 200.681 183.382 200.216 182.486C199.75 181.591 199.518 180.495 199.518 179.199C199.518 177.932 199.729 176.836 200.151 175.912C200.581 174.981 201.183 174.265 201.956 173.764C202.737 173.262 203.653 173.012 204.706 173.012ZM204.685 174.473C203.732 174.473 202.973 174.784 202.407 175.407C201.841 176.03 201.505 176.9 201.397 178.018H207.628C207.621 177.316 207.51 176.7 207.295 176.17C207.087 175.633 206.769 175.217 206.339 174.924C205.909 174.623 205.358 174.473 204.685 174.473Z" fill="black"/>
<path d="M162.75 158C159.313 158 156.093 157.406 153.091 156.219C150.089 155.031 147.476 153.427 145.253 151.406C143.03 149.385 141.266 147.01 139.959 144.281C138.653 141.552 138 138.625 138 135.5C138 132.375 138.653 129.448 139.959 126.719C141.266 123.99 143.03 121.615 145.253 119.594C147.476 117.573 150.089 115.969 153.091 114.781C156.093 113.594 159.313 113 162.75 113C166.508 113 170.072 113.729 173.441 115.188C176.809 116.646 179.663 118.708 182 121.375V115.5H187.5V130.5H171V125.5H178.563C176.683 123.167 174.369 121.333 171.619 120C168.869 118.667 165.913 118 162.75 118C157.388 118 152.839 119.698 149.103 123.094C145.368 126.49 143.5 130.625 143.5 135.5C143.5 140.375 145.368 144.51 149.103 147.906C152.839 151.302 157.388 153 162.75 153C167.563 153 171.768 151.583 175.366 148.75C178.964 145.917 181.083 142.333 181.725 138H187.363C186.675 143.708 183.982 148.469 179.284 152.281C174.586 156.094 169.075 158 162.75 158ZM170.45 146L160 136.5V123H165.5V134.5L174.3 142.5L170.45 146Z" fill="black"/>
</svg>
