<svg width="29" height="38" viewBox="0 0 29 38" fill="none" xmlns="http://www.w3.org/2000/svg">
<path d="M3.8 13.9395H0V19.8129V25.1443H3.8V13.9395Z" fill="#009CA6"/>
<path d="M8.19995 13.9395V19.8129V25.1443H12.1V13.9395H8.19995Z" fill="#009CA6"/>
<path d="M16.5 13.9395V19.8129V25.1443H20.3V13.9395H16.5Z" fill="#009CA6"/>
<path d="M0 11.771H14.3H28.6V8.6084H0V11.771Z" fill="#009CA6"/>
<path d="M14.3 0.0239258L0 4.27091V7.61428L14.3 3.27694L28.6 7.61428V4.27091L14.3 0.0239258Z" fill="#009CA6"/>
<path d="M28.6 24.8735C28.5 25.0543 27.1 27.2229 18 27.2229H10.6C1.2 27.3133 0.2 28.3976 0 28.488V31.741C0.2 31.6506 1.2 30.5663 10.6 30.4759H18C27.1 30.4759 28.5 28.3073 28.6 28.1265V24.8735Z" fill="#009CA6"/>
<path d="M28.6 30.2046C28.5 30.3853 27.1 32.554 18 32.554H10.6C1.2 32.6443 0.2 33.7287 0 33.819V37.0721C0.2 36.9817 1.2 35.8974 10.6 35.807H18C27.1 35.807 28.5 33.6383 28.6 33.4576V30.2046Z" fill="#009CA6"/>
<path d="M24.7 13.9395V24.6021C27.8 23.9696 28.5 22.9756 28.5 22.7949V13.9395H24.7Z" fill="#009CA6"/>
</svg>
